<svg width="245" height="176" viewBox="0 0 245 176" fill="none" xmlns="http://www.w3.org/2000/svg">
<g clip-path="url(#clip0_4_42)">
<path d="M139.572 155.703C137.878 153.589 135.585 152.043 132.701 151.464C130.187 150.959 127.602 151.045 125.046 151.063L92.7319 151.285C89.9644 151.304 87.3109 153.44 87.4394 156C87.567 158.539 89.7654 160.736 92.7319 160.716C102.198 160.651 111.664 160.586 121.13 160.521C123.361 160.506 125.594 160.47 127.826 160.476C128.327 160.478 128.826 160.501 129.327 160.506C129.448 160.508 129.536 160.507 129.598 160.504C129.613 160.508 129.626 160.512 129.646 160.517C129.908 160.581 130.175 160.625 130.438 160.686C130.346 160.688 130.609 160.834 130.74 160.884C130.759 160.915 130.797 160.972 130.862 161.059C130.952 161.209 131.218 161.666 131.229 161.651C131.629 162.553 131.959 163.478 132.217 164.42C132.832 166.497 132.967 166.931 133.056 168.879C133.168 171.341 135.41 173.712 138.348 173.595C141.12 173.484 143.761 171.519 143.641 168.879C143.438 164.431 142.562 159.434 139.572 155.703Z" fill="#E6E6E6"/>
<path d="M94.6315 166.344C94.0245 163.067 93.4292 159.788 92.8104 156.512C92.1826 153.19 90.9003 150.147 87.9983 147.966C87.2228 147.384 86.4188 146.84 85.6114 146.297C85.3275 146.107 85.044 145.916 84.7635 145.721C84.7467 145.709 84.736 145.702 84.7215 145.692C84.6906 145.668 84.6536 145.64 84.6039 145.603C83.3943 144.691 82.2256 143.738 81.1123 142.725C80.1237 141.826 79.1782 140.888 78.276 139.912C78.0505 139.668 77.8279 139.422 77.6083 139.174C77.5705 139.132 77.367 138.897 77.2329 138.744C77.1082 138.591 76.8803 138.315 76.8421 138.267C76.5854 137.943 76.3333 137.617 76.0859 137.288C74.4002 135.037 72.9405 132.659 71.7239 130.18C71.6032 129.934 71.4854 129.687 71.3705 129.438C71.3396 129.363 71.2997 129.265 71.2468 129.135C71.0016 128.534 70.7569 127.934 70.5327 127.327C70.0564 126.036 69.6469 124.725 69.3042 123.396C69.1348 122.74 68.9823 122.08 68.8467 121.417C68.7767 121.076 68.7113 120.735 68.6504 120.392C68.6404 120.335 68.581 119.966 68.5459 119.757C68.5201 119.548 68.472 119.176 68.4655 119.119C68.4267 118.774 68.3923 118.428 68.3623 118.082C68.2946 117.304 68.2489 116.525 68.225 115.744C68.1843 114.357 68.2122 112.97 68.3087 111.582C68.3636 110.803 68.4418 110.026 68.538 109.25C68.5439 109.202 68.5484 109.164 68.5526 109.13C68.5584 109.095 68.5652 109.056 68.5733 109.007C68.6445 108.578 68.7194 108.15 68.8032 107.723C69.1207 106.102 69.5336 104.497 70.0401 102.915C70.28 102.167 70.5405 101.424 70.8217 100.688C70.947 100.361 71.0763 100.036 71.2096 99.7116C71.2009 99.7325 71.6007 98.8228 71.606 98.7922C73.1921 95.4533 75.7863 92.4094 75.7898 88.6166C75.7923 86.0486 73.3539 83.5886 70.4974 83.7073C69.0732 83.755 67.7254 84.2936 66.7381 85.2094C65.7508 86.1252 65.2011 87.3467 65.2049 88.6166C65.2049 88.6742 65.2046 88.7234 65.2044 88.7712C65.1778 88.8511 65.1555 88.9178 65.1354 88.9768C64.8261 89.5757 64.4472 90.1448 64.1077 90.7288C63.1781 92.3272 62.3845 93.978 61.6308 95.6531C60.3968 98.3809 59.4522 101.206 58.8095 104.09C57.4124 110.411 57.304 116.904 58.4893 123.259C60.5414 134.403 67.3084 145.071 76.7163 152.242C77.5327 152.864 78.369 153.465 79.2133 154.055C79.5626 154.298 79.9149 154.538 80.2689 154.775C80.4362 154.888 81.1294 155.375 80.8245 155.139C81.4803 155.637 81.7563 155.888 81.9247 156.256C81.9491 156.34 81.9824 156.455 82.0275 156.613C82.1462 157.027 82.2589 157.44 82.3526 157.86C83.1715 161.53 83.7406 165.261 84.4246 168.954C84.8948 171.492 88.4013 173.144 90.9351 172.383C93.8843 171.498 95.1352 169.063 94.6315 166.344Z" fill="#E6E6E6"/>
<path d="M140.107 175.862C137.885 175.867 135.75 175.087 134.173 173.692C132.595 172.297 131.703 170.401 131.692 168.421V163.041C125.372 163.672 103.727 163.526 97.523 162.638V168.205C97.5063 170.184 96.6124 172.077 95.0361 173.471C93.4597 174.865 91.3288 175.647 89.1079 175.647C86.8869 175.647 84.756 174.865 83.1797 173.471C81.6034 172.077 80.7094 170.184 80.6928 168.205V157.274C72.2896 153.114 65.2843 147.032 60.3999 139.655C55.5156 132.278 52.9291 123.874 52.9073 115.309C52.9073 100.623 60.3773 86.923 73.402 77.722C81.8705 71.7194 92.1597 68.1094 102.948 67.3557C104.412 67.2534 105.886 67.2016 107.327 67.2016C112.405 67.2016 135.317 67.9006 141.066 69.3742L154.174 57.7852C154.367 57.6125 154.613 57.4949 154.881 57.4473C155.149 57.3997 155.427 57.4243 155.679 57.518C155.933 57.6081 156.151 57.7646 156.303 57.9669C156.456 58.1692 156.536 58.4079 156.534 58.6517V60.4943L159.086 58.242C159.279 58.0691 159.524 57.9513 159.792 57.9036C160.06 57.8559 160.338 57.8806 160.59 57.9743C160.845 58.0644 161.062 58.2209 161.215 58.4233C161.368 58.6257 161.448 58.8646 161.446 59.1085V79.6991C168.023 84.9823 173.037 91.6297 176.041 99.052C179.046 106.474 179.949 114.442 178.671 122.25C177.393 130.058 173.973 137.464 168.714 143.813C163.455 150.161 156.52 155.256 148.522 158.645V168.421C148.511 170.401 147.619 172.297 146.042 173.692C144.464 175.087 142.33 175.867 140.107 175.862ZM132.354 162.373V168.421C132.371 170.243 133.195 171.986 134.647 173.269C136.099 174.552 138.062 175.273 140.107 175.273C142.153 175.273 144.115 174.552 145.568 173.269C147.02 171.986 147.844 170.243 147.861 168.421V158.273L148.05 158.193C157.023 154.399 164.641 148.463 170.057 141.045C176.958 131.579 179.829 120.225 178.148 109.036C176.467 97.8482 170.347 87.5656 160.894 80.0499L160.784 79.9619V59.1084C160.787 58.9817 160.746 58.8574 160.666 58.7523C160.587 58.6471 160.473 58.5661 160.341 58.5203C160.209 58.4701 160.063 58.4565 159.923 58.4814C159.782 58.5063 159.653 58.5685 159.553 58.6597L155.872 61.9077V58.6517C155.875 58.525 155.833 58.4007 155.754 58.2955C155.675 58.1903 155.561 58.1094 155.429 58.0635C155.296 58.0134 155.15 58 155.01 58.0251C154.869 58.0501 154.74 58.1125 154.64 58.204L141.251 70.041L141.061 69.9879C135.716 68.4976 112.444 67.791 107.327 67.791C105.903 67.791 104.447 67.8423 103 67.9434C92.3427 68.6879 82.1786 72.254 73.8131 78.1838C60.9476 87.2724 53.5688 100.804 53.5688 115.309C53.5908 123.798 56.1635 132.127 61.0197 139.431C65.8758 146.735 72.8382 152.747 81.1837 156.842L81.3543 156.927V168.205C81.3714 170.028 82.1958 171.77 83.648 173.053C85.1002 174.336 87.0626 175.056 89.1079 175.056C91.1531 175.056 93.1155 174.336 94.5677 173.053C96.0199 171.77 96.8443 170.028 96.8614 168.205V161.932L97.2533 161.998C102.829 162.932 126.306 163.08 131.98 162.417L132.354 162.373Z" fill="#3F3D56"/>
<path d="M95.2637 35.1064L58.6331 44.9148C57.468 45.228 56.4902 45.9405 55.9143 46.8957C55.3384 47.8509 55.2117 48.9707 55.5619 50.0092C55.9121 51.0476 56.7107 51.9197 57.7821 52.4339C58.8536 52.9481 60.1103 53.0623 61.2761 52.7514L93.3318 44.1662L94.0034 43.9864C94.1393 40.9032 95.0781 37.8904 96.7456 35.186C96.5363 35.1021 96.3126 35.0503 96.084 35.0328C95.8078 35.0089 95.529 35.034 95.2637 35.1064Z" fill="#613EEA"/>
<path d="M60.6426 54.8425C60.1564 54.8414 59.6828 54.7043 59.2888 54.4503C58.8948 54.1964 58.6003 53.8386 58.447 53.4275L56.1564 47.269C56.0607 47.0118 56.0228 46.7404 56.0449 46.4701C56.067 46.1999 56.1486 45.9362 56.2851 45.6941C56.4216 45.452 56.6103 45.2362 56.8404 45.059C57.0705 44.8819 57.3375 44.7469 57.6261 44.6617L87.4397 35.8583C87.7283 35.7731 88.0329 35.7393 88.3362 35.759C88.6394 35.7786 88.9354 35.8513 89.2071 35.9729C89.4788 36.0945 89.721 36.2625 89.9199 36.4675C90.1187 36.6724 90.2703 36.9103 90.3659 37.1675L92.6565 43.3259C92.8471 43.8325 92.8089 44.3852 92.55 44.8671C92.2911 45.3489 91.8319 45.7221 91.2695 45.9075C91.242 45.9167 91.2142 45.9254 91.1861 45.9335L61.3733 54.7366C61.1377 54.8066 60.891 54.8423 60.6426 54.8425Z" fill="#2F2E41"/>
<path d="M116.476 24.1694C110.459 24.1714 104.679 26.2596 100.359 29.9918C96.0395 33.7241 93.5192 38.8075 93.3318 44.1662C93.3252 44.3754 93.322 44.5876 93.322 44.7998C93.322 48.8801 94.6799 52.8688 97.2242 56.2615C99.7684 59.6541 103.385 62.2984 107.616 63.8599C111.847 65.4213 116.502 65.8299 120.994 65.0339C125.485 64.2378 129.611 62.273 132.849 59.3878C136.087 56.5025 138.293 52.8265 139.186 48.8246C140.08 44.8227 139.621 40.6746 137.869 36.9049C136.116 33.1352 133.148 29.9131 129.34 27.6462C125.533 25.3793 121.056 24.1694 116.476 24.1694ZM116.476 64.8408C110.513 64.8353 104.795 62.7221 100.578 58.9648C96.3615 55.2076 93.9897 50.1133 93.9835 44.7998C93.9835 44.5257 93.9901 44.2546 94.0034 43.9864C94.1825 40.0607 95.6528 36.2684 98.2315 33.0813C100.81 29.8941 104.383 27.4526 108.507 26.0603C112.631 24.6681 117.122 24.3866 121.424 25.2507C125.726 26.1148 129.648 28.0866 132.702 30.9207C135.756 33.7548 137.807 37.3263 138.602 41.191C139.396 45.0557 138.898 49.0432 137.169 52.6576C135.44 56.272 132.557 59.3539 128.878 61.52C125.199 63.6861 120.886 64.841 116.476 64.8408Z" fill="#3F3D56"/>
<path d="M135.992 44.7998C135.992 49.4116 133.936 53.8344 130.276 57.0954C126.616 60.3564 121.652 62.1884 116.476 62.1884C111.301 62.1884 106.337 60.3564 102.677 57.0954C99.0167 53.8344 96.9605 49.4116 96.9605 44.7998C96.9605 44.2487 96.9902 43.7064 97.0464 43.17C97.5167 38.7192 99.8929 34.6008 103.682 31.6699C107.47 28.739 112.38 27.2208 117.392 27.4305C122.404 27.6403 127.133 29.5618 130.596 32.7962C134.06 36.0306 135.992 40.3294 135.992 44.7998Z" fill="#E6E6E6"/>
<path d="M122.288 45.9551C121.815 45.401 121.193 44.9621 120.479 44.679C119.598 44.3483 118.689 44.0822 117.76 43.8832V39.15C119.188 39.3419 120.528 39.886 121.627 40.7209L122.705 38.6726C122.085 38.1803 121.373 37.7883 120.601 37.5143C119.746 37.2058 118.848 37.0006 117.932 36.9043V34.5052H115.435V36.9278C114.47 37.0243 113.54 37.3026 112.706 37.7442C111.952 38.1417 111.318 38.6958 110.857 39.3593C110.417 40.0068 110.189 40.7509 110.198 41.5078C110.155 42.328 110.422 43.1373 110.956 43.8066C111.447 44.3861 112.096 44.8445 112.841 45.1388C113.736 45.4792 114.661 45.7522 115.607 45.9551V50.4909C113.921 50.3776 112.315 49.8067 111.005 48.8552L109.927 50.9064C110.66 51.446 111.493 51.8669 112.388 52.1502C113.369 52.4631 114.395 52.6535 115.435 52.716V55.0944H117.932V52.6718C119.319 52.5368 120.62 52.0053 121.64 51.1569C122.089 50.7731 122.444 50.3103 122.682 49.7979C122.92 49.2855 123.036 48.7347 123.023 48.1803C123.064 47.3862 122.806 46.6028 122.288 45.9551ZM115.607 43.3822C114.998 43.2178 114.433 42.9474 113.943 42.5865C113.749 42.4326 113.595 42.2423 113.493 42.0293C113.392 41.8163 113.344 41.5859 113.354 41.3545C113.336 40.8296 113.552 40.3198 113.956 39.9369C114.403 39.5353 114.98 39.2684 115.607 39.1736V43.3822ZM119.328 49.6539C118.906 50.0395 118.356 50.2946 117.76 50.3818V46.4797C118.33 46.616 118.863 46.8536 119.328 47.1782C119.504 47.3122 119.644 47.4798 119.737 47.6686C119.831 47.8574 119.875 48.0625 119.867 48.2687C119.89 48.7745 119.697 49.2693 119.328 49.6539Z" fill="#613EEA"/>
<path d="M61.7058 79.8021C61.1944 79.8013 60.6976 79.6503 60.2925 79.3724C59.8873 79.0944 59.5963 78.7051 59.4647 78.2649L58.2176 74.0592C58.0615 73.5306 58.1471 72.9684 58.4556 72.4959C58.7642 72.0235 59.2704 71.6793 59.8633 71.539L99.2064 62.276C99.8001 62.138 100.431 62.2151 100.961 62.4904C101.491 62.7658 101.877 63.217 102.035 63.7453L103.091 67.3084L102.893 67.3221C92.8031 68.0211 83.1487 71.2807 75.0724 76.7152L75.015 76.7399L62.2932 79.7342C62.1015 79.7793 61.904 79.8021 61.7058 79.8021Z" fill="#2F2E41"/>
<path d="M55.1898 100.576C50.5746 99.9684 46.1607 98.4814 42.249 96.2163C40.311 95.095 38.517 93.7876 36.899 92.3177C35.302 90.8664 33.7743 89.2168 32.9833 87.2841C32.2222 85.4959 32.2615 83.5155 33.0928 81.7524C33.9129 80 35.4794 78.6089 37.4488 77.884C39.43 77.18 41.8238 77.1047 43.7519 77.8757C44.6708 78.2345 45.4659 78.8047 46.0556 79.5278C46.3297 79.8612 46.5327 80.2367 46.6544 80.6354C46.7673 80.9968 46.7776 81.3775 46.6843 81.7433C46.5712 82.1085 46.3718 82.4479 46.0995 82.7388C45.8271 83.0298 45.4881 83.2654 45.1052 83.43C44.2624 83.8153 43.3493 84.0634 42.4086 84.1628C41.4626 84.2777 40.1035 84.3823 39.343 83.7057C39.1864 83.5718 39.0633 83.41 38.9816 83.2309C38.9244 83.0938 38.9048 82.9464 38.9245 82.8012C38.9135 82.8652 38.9704 82.662 38.9672 82.6701C38.9552 82.7001 38.9031 82.7734 38.9771 82.6609C39.0002 82.6238 39.026 82.588 39.0542 82.5539C39.0291 82.5828 38.9739 82.6312 39.0725 82.5482C39.1539 82.4688 39.2587 82.4112 39.3749 82.3819C39.4207 82.37 39.4671 82.3606 39.513 82.3494C39.6297 82.321 39.3967 82.3509 39.5161 82.3475C39.5622 82.3462 39.6088 82.3472 39.6547 82.3454C39.7718 82.3407 39.5392 82.3169 39.6514 82.3421C39.695 82.3518 39.7381 82.3614 39.7811 82.3734C39.8744 82.3996 39.715 82.3124 39.7782 82.3777C39.8523 82.4541 39.7004 82.3033 39.7846 82.3773C39.8265 82.414 39.866 82.4528 39.9029 82.4935C40.049 82.622 40.246 82.694 40.4512 82.694C40.6564 82.694 40.8534 82.622 40.9995 82.4935C41.1406 82.362 41.2193 82.187 41.2193 82.005C41.2193 81.8231 41.1406 81.6481 40.9995 81.5165C40.2349 80.6721 38.7247 80.8807 37.9513 81.5944C36.9649 82.5047 37.3555 83.9473 38.315 84.7415C39.4011 85.6406 40.9395 85.7031 42.3367 85.5523C43.5175 85.4515 44.6682 85.1618 45.7335 84.697C46.792 84.2336 47.62 83.4367 48.0569 82.4606C48.2542 81.9397 48.325 81.3874 48.2648 80.8403C48.2046 80.2931 48.0146 79.7636 47.7075 79.2868C46.4739 77.2205 43.9195 76.1611 41.3948 75.9776C40.0949 75.8868 38.7877 76.0267 37.5489 76.3891C36.31 76.7514 35.1642 77.3291 34.1776 78.0886C32.2759 79.614 31.1049 81.7321 30.9067 84.0051C30.6863 86.3617 31.7125 88.6503 33.2087 90.5521C34.775 92.4845 36.6441 94.2068 38.759 95.6665C42.8935 98.6076 47.7433 100.645 52.9203 101.617C53.5361 101.73 54.1552 101.827 54.7775 101.908C54.9756 101.951 55.1845 101.925 55.3617 101.835C55.5389 101.746 55.6711 101.599 55.7313 101.426C55.7845 101.249 55.7575 101.061 55.6561 100.902C55.5548 100.743 55.3873 100.626 55.1898 100.576L55.1898 100.576Z" fill="#3F3D56"/>
<path d="M129.081 70.5508C122.319 70.4658 115.579 70.6187 108.859 71.0095C106.563 71.1431 104.576 71.8664 104.576 73.082C104.576 74.0984 106.547 75.2891 108.859 75.1545C115.575 74.7637 122.316 74.6109 129.081 74.6958C134.596 74.7652 134.593 70.6201 129.081 70.5508Z" fill="#CCCCCC"/>
<path d="M119.087 74.4905C118.356 74.4905 101.19 74.4662 101.19 72.3535C101.19 70.2409 118.356 70.2166 119.087 70.2166C119.818 70.2166 136.984 70.2409 136.984 72.3535C136.984 74.4662 119.818 74.4905 119.087 74.4905ZM101.861 72.3535C102.331 72.994 108.641 73.9011 119.087 73.9011C129.533 73.9011 135.843 72.994 136.313 72.3535C135.843 71.7131 129.533 70.8061 119.087 70.8061C108.641 70.8061 102.331 71.7131 101.861 72.3535V72.3535Z" fill="#3F3D56"/>
<path d="M173.551 130.031C177.351 129.937 182.08 129.819 185.724 127.448C186.809 126.713 187.7 125.775 188.336 124.701C188.971 123.626 189.335 122.441 189.402 121.228C189.477 119.355 188.717 117.721 187.264 116.626C185.361 115.194 182.582 114.858 179.587 115.642L182.69 95.4392L180.413 95.1612L176.765 118.912L178.667 118.134C180.872 117.233 183.899 116.774 185.78 118.191C186.242 118.561 186.602 119.021 186.832 119.535C187.061 120.05 187.155 120.604 187.105 121.156C187.049 122.059 186.776 122.94 186.304 123.741C185.831 124.541 185.171 125.241 184.368 125.794C181.532 127.639 177.763 127.877 173.487 127.983L173.551 130.031Z" fill="#3F3D56"/>
<path d="M167.254 97.1815H154.872V99.2299H167.254V97.1815Z" fill="#3F3D56"/>
<path d="M67.3087 89.2231C66.7576 89.2215 66.2251 89.0451 65.8066 88.7256C65.3881 88.406 65.111 87.9641 65.025 87.4791L64.2692 83.1816C64.1748 82.6411 64.3249 82.0893 64.6866 81.6473C65.0483 81.2053 65.592 80.9092 66.1984 80.824L106.398 75.2118C107.005 75.1277 107.624 75.2614 108.12 75.5837C108.616 75.9059 108.949 76.3903 109.044 76.9306L109.8 81.2282C109.894 81.7687 109.744 82.3205 109.383 82.7625C109.021 83.2045 108.477 83.5006 107.871 83.5858L67.6709 89.1979C67.5511 89.2146 67.43 89.223 67.3087 89.2231Z" fill="#2F2E41"/>
<path d="M50.6719 38.8603C59.9888 38.8603 67.5416 32.1308 67.5416 23.8296C67.5416 15.5283 59.9888 8.79881 50.6719 8.79881C41.355 8.79881 33.8021 15.5283 33.8021 23.8296C33.8021 32.1308 41.355 38.8603 50.6719 38.8603Z" fill="#613EEA"/>
<path d="M60.2232 27.7187C60.7624 27.5507 61.2549 27.2817 61.6677 26.93C61.9408 26.6792 62.1491 26.3782 62.2779 26.0482C62.4067 25.7181 62.453 25.367 62.4135 25.0193C62.3906 24.7715 62.3036 24.5318 62.1595 24.3189C62.0153 24.106 61.8179 23.9257 61.5826 23.7921C60.972 23.4575 60.1653 23.4702 59.3508 23.8066L59.2568 17.9393L58.5953 17.9477L58.7058 24.8453L59.2094 24.551C59.7933 24.2104 60.6323 23.9633 61.2359 24.2942C61.3852 24.3817 61.5098 24.4988 61.6001 24.6363C61.6903 24.7738 61.7438 24.928 61.7562 25.0868C61.7841 25.3458 61.7489 25.6071 61.6533 25.853C61.5576 26.0988 61.4036 26.3234 61.2018 26.5114C60.4847 27.1454 59.4232 27.3578 58.2118 27.5521L58.329 28.1322C58.973 28.045 59.6069 27.9067 60.2232 27.7187Z" fill="#2F2E41"/>
<path d="M66.0688 17.5275L62.546 18.0028L62.645 18.5856L66.1679 18.1102L66.0688 17.5275Z" fill="#2F2E41"/>
<path d="M54.949 19.0276L51.4262 19.503L51.5252 20.0857L55.0481 19.6103L54.949 19.0276Z" fill="#2F2E41"/>
<path d="M61.8201 88.9603C61.2134 88.9592 60.6215 88.7934 60.1231 88.4852C59.6247 88.1769 59.2435 87.7408 59.0302 87.2347L47.399 59.4812C45.9773 56.0774 46.1291 52.3101 47.8211 49.0059C49.513 45.7017 52.6069 43.1304 56.424 41.8562L65.8815 38.7097C66.2472 38.5872 66.6365 38.5304 67.027 38.5424C67.4174 38.5545 67.8014 38.6353 68.1567 38.7801C68.5111 38.9212 68.8304 39.1238 69.0959 39.3761C69.3615 39.6284 69.5679 39.9253 69.7032 40.2495L91.249 76.4954C91.3889 76.8222 91.4548 77.1705 91.4431 77.5202C91.4313 77.8698 91.342 78.2139 91.1804 78.5327C91.0188 78.8515 90.7881 79.1387 90.5014 79.3777C90.2148 79.6167 89.8779 79.8028 89.5102 79.9254L62.8605 88.7918C62.5278 88.903 62.1754 88.9601 61.8201 88.9603Z" fill="#2F2E41"/>
<path d="M63.0121 39.6643L84.3901 65.1357L69.9246 39.9316C69.8051 39.6375 69.6218 39.3673 69.3851 39.1364C69.1484 38.9054 68.8629 38.7183 68.545 38.5857C68.2271 38.453 67.883 38.3775 67.5324 38.3634C67.1817 38.3493 66.8314 38.3969 66.5013 38.5034L63.0121 39.6643Z" fill="#E6E6E6"/>
<path d="M96.8614 59.0083L58.6911 56.8176C58.0894 56.7831 57.5013 56.6433 56.9603 56.4063C56.4192 56.1692 55.9359 55.8396 55.5379 55.4361C55.1398 55.0326 54.8349 54.5632 54.6405 54.0548C54.446 53.5463 54.3659 53.0087 54.4046 52.4726C54.4434 51.9365 54.6003 51.4125 54.8663 50.9304C55.1324 50.4484 55.5024 50.0178 55.9552 49.6631C56.408 49.3085 56.9348 49.0368 57.5055 48.8635C58.0762 48.6903 58.6796 48.6189 59.2813 48.6534L97.4516 50.844C97.7334 50.8601 98.0088 50.9255 98.2622 51.0365C98.5156 51.1475 98.742 51.3019 98.9284 51.4909C99.1148 51.6798 99.2576 51.8996 99.3486 52.1378C99.4397 52.3759 99.4772 52.6277 99.4591 52.8787L99.1453 57.2197C99.1086 57.7267 98.8474 58.2 98.4191 58.5354C97.9908 58.8708 97.4305 59.0409 96.8614 59.0083Z" fill="#613EEA"/>
<path d="M86.6618 60.4127C86.6114 60.4127 86.5609 60.4113 86.5102 60.4084H86.5101L55.1668 58.6096C54.8633 58.5922 54.5667 58.5217 54.2938 58.4022C54.0209 58.2826 53.7772 58.1164 53.5764 57.9129C53.3757 57.7094 53.2219 57.4727 53.1238 57.2162C53.0257 56.9598 52.9853 56.6886 53.0049 56.4183L53.5409 49.0036C53.5604 48.7333 53.6396 48.469 53.7737 48.2259C53.9079 47.9827 54.0946 47.7656 54.323 47.5867C54.5514 47.4078 54.8171 47.2708 55.1049 47.1835C55.3928 47.0961 55.6971 47.0601 56.0005 47.0776L87.3438 48.8763C87.9564 48.912 88.528 49.1628 88.9333 49.5736C89.3385 49.9844 89.5444 50.5217 89.5056 51.0675L88.9697 58.4823C88.9402 58.8796 88.7826 59.2609 88.5159 59.5804C88.2491 59.8998 87.8846 60.1439 87.4659 60.2833C87.2088 60.369 86.9364 60.4129 86.6618 60.4127Z" fill="#2F2E41"/>
<path d="M50.4785 13.8344C52.6977 12.1337 55.7453 13.6551 58.2904 13.3887C60.7253 13.1339 62.648 11.1879 63.1391 9.12048C63.7122 6.70848 62.3071 4.29201 60.236 2.78818C57.9677 1.1411 54.9594 0.668269 52.1086 0.97299C48.8413 1.32223 45.8532 2.67923 43.172 4.32059C40.5839 5.85582 38.204 7.65272 36.0795 9.67542C34.1772 11.5474 32.5654 13.7787 32.0507 16.2977C31.583 18.587 31.9401 21.1238 33.459 23.0631C34.2644 24.0571 35.3438 24.8493 36.5929 25.3635C37.8953 25.9333 39.2846 26.3407 40.5464 26.9849C42.4543 27.9591 44.3085 29.979 43.7109 32.0809C43.5828 32.5401 43.3299 32.9642 42.9746 33.3158C42.5477 33.7381 41.7776 33.1801 42.2056 32.7567C42.9574 32.0131 42.9278 31.0214 42.5272 30.1336C42.0507 29.1332 41.2071 28.3067 40.1345 27.7893C38.8137 27.1165 37.3555 26.7012 36.0017 26.0883C34.706 25.5285 33.5813 24.698 32.7232 23.6675C31.103 21.6614 30.6184 19.0505 30.9858 16.6352C31.3835 14.0215 32.8907 11.6464 34.7801 9.65608C36.8363 7.49005 39.362 5.65656 41.9423 4.00942C44.7109 2.24202 47.7697 0.747808 51.1545 0.207375C54.0886 -0.261096 57.2688 0.0273244 59.8346 1.45196C62.2295 2.78177 64.066 5.0693 64.2486 7.62539C64.3142 8.7884 64.0308 9.94598 63.4275 10.979C62.8243 12.012 61.923 12.8831 60.8164 13.5027C59.6809 14.1081 58.3608 14.3806 57.0422 14.2818C55.6326 14.2014 54.2215 13.8168 52.8029 13.9236C52.1609 13.9583 51.5492 14.1785 51.0603 14.5509C50.5755 14.9224 49.9976 14.2029 50.4785 13.8344V13.8344Z" fill="#2F2E41"/>
<path d="M244.606 176H0.393905C0.289646 176 0.189763 175.963 0.116147 175.897C0.0425318 175.831 0.00119019 175.742 0.00119019 175.649C0.00119019 175.556 0.0425318 175.467 0.116147 175.401C0.189763 175.336 0.289646 175.298 0.393905 175.298H244.606C244.711 175.298 244.811 175.335 244.885 175.401C244.959 175.467 245 175.556 245 175.649C245 175.742 244.959 175.831 244.885 175.897C244.811 175.963 244.711 176 244.606 176Z" fill="#3F3D56"/>
</g>
<defs>
<clipPath id="clip0_4_42">
<rect width="245" height="176" fill="white"/>
</clipPath>
</defs>
</svg>
