<svg width="215" height="122" viewBox="0 0 215 122" fill="none" xmlns="http://www.w3.org/2000/svg">
<g clip-path="url(#clip0_8_116)">
<path d="M215 120.621H0V122H215V120.621Z" fill="#85848B"/>
<path d="M170.336 96.2729C170.336 97.3336 163.291 100.426 154.923 100.426C146.556 100.426 140.035 97.3336 140.035 96.2729C140.035 95.2121 146.818 95.5537 155.194 95.5537C163.57 95.5537 170.336 95.2103 170.336 96.2729Z" fill="#504F60"/>
<path opacity="0.2" d="M170.336 96.2728C170.336 97.3336 163.291 100.426 154.923 100.426C146.556 100.426 140.035 97.3336 140.035 96.2728" fill="black"/>
<path d="M86.0651 76.8093C87.4232 76.9622 88.8326 77.0592 90.1333 76.6889C90.3382 76.6331 90.5635 76.5091 90.543 76.3293C90.5284 76.264 90.4968 76.2025 90.4508 76.1495C89.9605 75.5041 89.5486 74.8154 89.2218 74.0946C89.2088 74.057 89.1822 74.0242 89.146 74.0011C89.1036 73.9877 89.0572 73.9877 89.0149 74.0011C88.4147 74.1396 87.8964 74.4793 87.3003 74.625C86.9964 74.6981 86.6792 74.7189 86.3662 74.6861C86.0958 74.6591 85.7271 74.4632 85.4813 74.4883C85.6206 75.274 85.9607 76.0075 86.0651 76.8093Z" fill="#613EEA"/>
<path d="M111.751 74.8192C112.646 74.2798 113.574 73.7135 114.102 72.8811C114.14 72.8313 114.162 72.7736 114.166 72.7139C114.157 72.6551 114.131 72.5994 114.09 72.5521C113.586 71.8497 112.938 71.2357 112.179 70.7416C111.782 70.9874 111.424 71.2775 111.113 71.6046C110.888 71.8132 110.265 72.144 110.259 72.4622C110.259 72.642 110.497 72.8505 110.607 73.0015C110.757 73.1957 110.898 73.3935 111.034 73.5948C111.111 73.6937 111.822 74.7796 111.751 74.8192Z" fill="#613EEA"/>
<path d="M91.389 79.2167C91.405 79.4019 91.3471 79.5862 91.2251 79.738C91.1295 79.8225 91.0111 79.8843 90.881 79.9178C88.9821 80.5147 86.7841 79.7704 84.8893 80.3583C84.5001 80.4788 84.1314 80.6531 83.7402 80.7682C83.2737 80.8913 82.7925 80.9661 82.3063 80.9911C81.6364 81.0469 80.9625 81.0828 80.2906 81.099C79.7801 81.1307 79.2671 81.0913 78.7706 80.9821C78.5224 80.9264 78.2903 80.8254 78.0895 80.6857C77.8887 80.546 77.7236 80.3707 77.6051 80.1713C77.5021 79.9926 77.4816 79.7859 77.5477 79.5942C77.5774 79.5285 77.6197 79.4677 77.6727 79.4144C77.8011 79.288 77.9519 79.1805 78.1192 79.0962L78.8178 78.7007C79.1453 78.4974 79.5012 78.3318 79.8768 78.2081C80.1533 78.129 80.4463 78.0948 80.7269 78.0283C81.7081 77.7766 82.4578 77.0934 83.1543 76.4372L84.1048 75.5473C84.1936 75.4494 84.3063 75.3701 84.4346 75.3154C84.5664 75.2768 84.7065 75.2651 84.8443 75.2812C85.7675 75.339 86.659 75.6013 87.4355 76.0435C87.634 76.1741 87.8483 76.2851 88.0746 76.3743C88.6318 76.5648 89.3467 76.421 89.8609 76.1801C90.1046 76.0651 90.0514 76.0003 90.1538 75.7954C90.2562 75.5904 90.5061 75.4592 90.7233 75.6462C90.7888 75.7108 90.8352 75.7886 90.8585 75.8727C91.0633 76.466 90.9855 77.1042 90.9855 77.7263C90.9795 77.8235 90.9933 77.9209 91.0264 78.0139C91.0787 78.1076 91.1411 78.1968 91.2128 78.28C91.2274 78.302 91.2404 78.3248 91.2518 78.3483C91.3771 78.6237 91.4242 78.9217 91.389 79.2167Z" fill="#514E7F"/>
<path d="M91.389 79.2167C91.405 79.4019 91.3471 79.5862 91.2252 79.738C91.1295 79.8224 91.0112 79.8843 90.881 79.9178C88.9821 80.5147 86.7841 79.7704 84.8893 80.3583C84.5001 80.4788 84.1314 80.6531 83.7402 80.7682C83.2737 80.8913 82.7925 80.9661 82.3063 80.9911C81.6364 81.0469 80.9625 81.0828 80.2906 81.099C79.7801 81.1307 79.2671 81.0913 78.7707 80.9821C78.5224 80.9264 78.2903 80.8254 78.0895 80.6857C77.8887 80.546 77.7236 80.3707 77.6051 80.1713C77.5021 79.9926 77.4816 79.7859 77.5477 79.5942C77.5774 79.5285 77.6197 79.4677 77.6727 79.4144C77.7833 79.6176 77.8632 79.8873 77.9328 79.9843C78.0269 80.1282 78.1549 80.2528 78.3082 80.3499C78.4615 80.4469 78.6366 80.5141 78.8219 80.5471C79.0991 80.562 79.3771 80.5309 79.6412 80.4554C81.3619 80.0814 83.1912 80.076 84.8443 79.5097C85.4117 79.3137 85.9525 79.0531 86.5486 78.9344C87.1447 78.8157 87.7776 78.8481 88.3922 78.8031C89.3631 78.7348 90.3034 78.4777 91.26 78.3429C91.3835 78.6206 91.4278 78.9205 91.389 79.2167Z" fill="#464353"/>
<path d="M116.099 74.7095C116.009 75.3423 115.552 75.8871 115.051 76.3491C114.549 76.8112 113.981 77.2265 113.582 77.7586C113.09 78.4184 112.869 79.2364 112.23 79.7938C111.985 79.9964 111.709 80.1688 111.41 80.3062C111.076 80.4792 110.723 80.622 110.356 80.7323C109.401 81.0001 108.373 80.939 107.375 80.8743C107.051 80.8715 106.731 80.8173 106.429 80.7143C106.291 80.653 106.16 80.5821 106.035 80.5021C105.785 80.367 105.575 80.1822 105.421 79.9628C105.345 79.8434 105.324 79.7034 105.361 79.5708C105.418 79.4249 105.516 79.2938 105.646 79.1897C105.871 78.9848 106.112 78.7944 106.367 78.6198C106.718 78.4212 107.034 78.1789 107.305 77.9007C107.472 77.6808 107.595 77.4376 107.668 77.1815C107.813 76.7329 107.902 76.2717 107.932 75.8062C107.931 75.4968 107.968 75.1882 108.041 74.8857C108.192 74.411 108.594 73.9867 108.549 73.4959C108.531 73.4257 108.538 73.3521 108.569 73.2856C108.617 73.2336 108.683 73.1974 108.758 73.1831C109.071 73.0736 109.401 73.0063 109.737 72.9835C109.905 72.9733 110.074 72.9961 110.232 73.0502C110.389 73.1043 110.531 73.1884 110.646 73.2964C110.786 73.4438 110.878 73.6559 111.083 73.7135C111.184 73.7378 111.291 73.7415 111.394 73.7243C111.898 73.6793 112.431 73.6236 112.828 73.3377C113.012 73.1931 113.159 73.0167 113.262 72.8196C113.364 72.6226 113.418 72.409 113.422 72.1925C113.422 72.0289 113.338 71.8581 113.627 71.8329C113.844 71.8078 114.016 72.0127 114.127 72.1386C114.526 72.6078 114.936 73.0986 115.085 73.6703C115.144 73.6505 115.205 73.6402 115.268 73.6398C115.395 73.6388 115.522 73.6649 115.635 73.7159C115.749 73.7669 115.847 73.8414 115.921 73.9328C116.084 74.1647 116.148 74.4402 116.099 74.7095Z" fill="#514E7F"/>
<path d="M116.099 74.7095C116.009 75.3423 115.552 75.8871 115.051 76.3491C114.549 76.8112 113.981 77.2265 113.582 77.7586C113.09 78.4184 112.869 79.2365 112.23 79.7938C111.985 79.9965 111.709 80.1688 111.41 80.3062C111.076 80.4793 110.723 80.622 110.356 80.7323C109.401 81.0001 108.373 80.939 107.375 80.8743C107.051 80.8716 106.731 80.8173 106.429 80.7143C106.291 80.653 106.16 80.5821 106.035 80.5021C105.785 80.367 105.575 80.1823 105.421 79.9628C105.613 79.8818 105.822 79.8376 106.035 79.8333C106.478 79.8549 106.801 80.2217 107.226 80.3349C107.83 80.4949 108.432 80.121 109.045 79.9933C109.444 79.9106 109.864 79.9322 110.259 79.8136C110.589 79.7018 110.893 79.5399 111.159 79.3353C111.522 79.1071 111.846 78.8333 112.119 78.5227C112.346 78.2121 112.535 77.8813 112.683 77.5357C113.006 76.8735 113.387 76.234 113.821 75.6228C113.886 75.526 113.964 75.4367 114.053 75.3567C114.149 75.2794 114.258 75.2255 114.366 75.1572C114.776 74.8857 114.946 74.438 115.089 73.9994C115.128 73.866 115.183 73.7365 115.251 73.6128C115.379 73.6118 115.505 73.638 115.619 73.689C115.733 73.74 115.831 73.8144 115.905 73.9059C116.081 74.1433 116.15 74.4297 116.099 74.7095Z" fill="#464353"/>
<path d="M73.1456 18.6562C73.6555 18.9916 74.0751 19.4212 74.3747 19.9147C74.6615 20.4073 76.3146 24.2295 76.2183 24.7851C76.757 24.3086 78.8813 24.2313 79.4261 23.7549C79.6535 23.5554 80.8805 22.5593 81.0649 22.3274C81.2493 22.0955 82.6176 21.6083 82.7671 21.3638C83.3264 20.4846 78.8014 17.1532 79.3811 16.2849C79.4132 16.245 79.4297 16.197 79.4282 16.1482C79.415 16.1072 79.3887 16.0704 79.3524 16.0422C78.9816 15.7096 78.49 15.5028 78.0435 15.2565C77.5969 15.0102 77.1667 14.6668 77.0459 14.2137C76.62 14.3858 76.2291 14.6178 75.8885 14.9005C75.0582 15.525 74.2422 16.162 73.4406 16.8116C73.1272 17.0669 72.5209 17.4067 72.3754 17.7717C72.2034 18.1636 72.8466 18.4423 73.1456 18.6562Z" fill="#A1616A"/>
<path d="M80.4709 17.2413C79.7766 17.6508 79.1278 18.1167 78.533 18.6329C77.9718 19.1201 77.4392 19.6846 77.304 20.366C77.2466 20.6339 77.2548 20.9053 77.2077 21.1768C77.0028 22.3544 75.8434 23.2174 75.3313 24.3195C75.183 24.6596 75.0739 25.0119 75.0056 25.3712C74.8617 26.0522 74.7829 26.7426 74.77 27.4351C74.7578 28.1057 75.5075 28.5678 75.782 29.1934C76.0565 29.8191 76.1302 30.4627 76.2695 31.1045C76.5317 32.3163 77.0131 33.4849 77.4986 34.6463C78.5085 37.0949 81.7819 43.8638 82.7917 46.3143C85.8869 45.6329 94.1258 44.067 96.8666 42.6305C97.7802 42.1523 90.5266 36.7569 91.5037 36.3848C91.5596 36.3772 91.6127 36.3582 91.6588 36.3295C91.7049 36.3008 91.7427 36.2631 91.7693 36.2193C91.796 36.1755 91.8106 36.1269 91.8122 36.0773C91.8137 36.0277 91.8021 35.9785 91.7782 35.9335C90.8011 32.1832 87.7449 29.1017 86.3581 25.4503C85.8767 24.1828 85.0122 23.1005 84.3567 21.896C83.7627 20.8047 83.4452 19.5983 82.7344 18.561C82.6004 18.3472 82.425 18.1556 82.2161 17.9946C82.0388 17.8753 81.8472 17.7734 81.6446 17.6908C81.239 17.5182 80.8621 17.4157 80.4709 17.2413Z" fill="#514E7F"/>
<path d="M73.3095 18.2302C75.9851 18.2302 78.1541 16.3265 78.1541 13.9783C78.1541 11.63 75.9851 9.72638 73.3095 9.72638C70.6339 9.72638 68.465 11.63 68.465 13.9783C68.465 16.3265 70.6339 18.2302 73.3095 18.2302Z" fill="#A1616A"/>
<path d="M78.2381 15.9757C78.4795 15.7802 78.7828 15.6536 79.1079 15.6125C79.433 15.5714 79.7647 15.6178 80.0591 15.7455C80.3869 15.8948 80.6737 16.1968 80.5999 16.5132L83.0027 16.5456C83.3852 16.5364 83.7675 16.5672 84.1417 16.6373C84.5182 16.7092 84.8544 16.8943 85.0921 17.1604C85.1208 17.1946 85.1536 17.236 85.2028 17.2414C85.2427 17.2419 85.2818 17.2305 85.3134 17.209C85.683 17.0463 86.0994 16.9837 86.5097 17.0292C87.8084 17.1029 89.0088 17.6728 90.0268 18.3848C90.2104 18.4955 90.3529 18.6512 90.4365 18.8324C90.5205 19.0716 90.4201 19.3718 90.6414 19.5426C90.6414 21.5202 91.4157 23.3684 91.9319 25.2957C92.0241 25.6391 92.3989 25.9429 92.6591 26.2126C92.9805 26.5116 93.2429 26.8555 93.4354 27.2302C93.8738 28.2298 93.2695 29.4056 93.6956 30.4088C93.8758 30.8331 94.2241 31.1818 94.515 31.5504C94.8984 31.976 95.1408 32.4861 95.2155 33.0246C95.234 33.2656 95.1991 33.5083 95.2155 33.7438C95.243 34.0677 95.3117 34.3879 95.4204 34.6984C95.5952 35.2785 95.7782 35.858 95.9693 36.4369C96.2807 37.3718 96.6863 38.3804 97.6409 38.8784C95.3364 39.2218 92.9069 39.558 90.711 38.8551C90.4047 38.7633 90.1139 38.6357 89.8466 38.4757C89.0538 37.9795 88.6708 37.1309 88.3287 36.3291C87.9477 35.4302 87.5605 34.5151 87.4827 33.5586C87.4834 33.2544 87.4344 32.9517 87.3372 32.6597C87.114 32.1383 86.5179 31.8237 85.9771 31.5342C85.3664 31.2405 84.8131 30.863 84.3383 30.416C84.1027 30.1908 83.9222 29.9256 83.8081 29.6368C83.6939 29.3479 83.6485 29.0416 83.6746 28.7368C83.7156 28.4401 83.8487 28.1543 83.861 27.8558C83.8733 27.5574 83.7217 27.2158 83.396 27.1367C81.7184 26.6908 80.9174 24.9469 80.5446 23.4439C80.3837 22.6671 80.3117 21.8781 80.3295 21.0887L80.307 19.5552C80.0755 19.3703 79.8893 19.146 79.7597 18.896C79.6301 18.6459 79.5598 18.3754 79.5532 18.1007C79.5754 17.9405 79.572 17.7783 79.5429 17.6189C79.4619 17.4241 79.33 17.2486 79.1578 17.1065C78.7874 16.7729 78.4772 16.3915 78.2381 15.9757Z" fill="#464353"/>
<path d="M73.078 20.8371C73.0227 21.3117 73.1456 21.7989 73.0248 22.2645C72.9777 22.4443 72.8957 22.6241 72.8363 22.7913C72.6547 23.4615 72.7333 24.1658 73.0596 24.7923C73.3855 25.4127 73.7756 26.0055 74.2252 26.5632C74.3772 26.7536 74.5024 26.9594 74.598 27.1763C74.6755 27.4039 74.7236 27.6385 74.7414 27.8756C74.86 28.8277 75.0502 29.7718 75.3108 30.7018C75.5403 31.5073 78.1459 38.393 78.7522 39.0312C78.8622 39.1726 79.0291 39.2721 79.2193 39.3099C79.3564 39.3144 79.4928 39.2898 79.6167 39.238L80.8457 38.8245C80.9503 38.7964 81.0471 38.7499 81.1305 38.6879C81.2457 38.5697 81.3082 38.419 81.3066 38.2636C81.3947 37.3862 78.783 30.4519 78.4511 29.6231C77.4474 27.1205 76.1118 24.7078 75.4583 22.1171C75.276 21.398 75.1798 20.2905 74.5796 19.717C74.3317 19.4797 74.4157 19.5804 74.1187 19.7044C73.9686 19.7616 73.8234 19.8283 73.6844 19.904C73.5105 20.0101 73.3659 20.1489 73.261 20.3103C73.1561 20.4717 73.0936 20.6517 73.078 20.8371Z" fill="#464353"/>
<path d="M76.8083 25.5851C77.1381 27.1151 77.4781 28.6415 77.8161 30.1714L82.6258 29.0658C82.6648 28.6235 82.3964 28.2136 82.2161 27.8073C81.7778 26.8418 81.7675 25.7667 81.4132 24.7743C81.1448 24.0192 80.6778 23.3253 80.4258 22.5648C80.2804 22.1225 80.2066 21.6658 80.0632 21.2182C79.9094 20.7786 79.7205 20.349 79.4979 19.9327C79.2279 19.329 78.8757 18.7561 78.4491 18.2266C77.8345 18.4279 77.179 18.6616 76.8287 19.1489C76.6491 19.4234 76.5466 19.7315 76.5297 20.0478C76.4457 20.9952 76.8369 21.9481 76.7079 22.8902C76.575 23.7873 76.6089 24.6975 76.8083 25.5851Z" fill="#613EEA"/>
<path d="M82.7057 45.9367C82.9761 46.8356 82.5848 47.7813 82.2653 48.6712C81.7842 50.0117 81.4562 51.3909 81.2861 52.7883C81.2653 53.1439 81.1838 53.4948 81.0444 53.8293C80.8928 54.1295 80.6347 54.383 80.4586 54.6689C79.9751 55.4204 79.9874 56.3373 80.0919 57.1966C80.1615 57.7629 80.266 58.3275 80.3951 58.8848C80.5528 59.5662 80.7474 60.2781 80.52 60.9433C80.901 60.8696 81.1591 61.3029 81.1345 61.6427C81.11 61.9825 80.985 62.3618 81.1714 62.6549C81.6426 62.8059 81.6467 63.374 81.6323 63.8145C81.6401 64.5782 81.7501 65.3386 81.9601 66.0798C82.6729 69.0882 83.4295 72.0882 84.2297 75.0798C85.9607 75.5508 87.9825 76.0416 89.6335 75.389C89.9408 75.2686 90.248 75.0762 90.3177 74.785C90.3357 74.628 90.3133 74.4695 90.2521 74.3211L89.4696 71.8221C89.2791 71.218 89.0886 70.5942 89.189 69.9739C89.2648 69.5119 89.4942 69.0139 89.2361 68.6058C89.148 68.4655 89.0087 68.3559 88.9063 68.2228C88.4966 67.696 88.7117 66.9913 88.7445 66.3531C88.7573 66.2098 88.7462 66.0656 88.7117 65.9252C88.6556 65.7611 88.5772 65.6036 88.4782 65.4559C87.8315 64.354 87.521 63.1239 87.5769 61.8854C87.6014 61.7274 87.5766 61.5664 87.5052 61.4198C87.4555 61.3592 87.411 61.2955 87.372 61.2292C87.3415 61.1138 87.3567 60.9927 87.4151 60.8858C87.1803 60.7295 86.9684 60.5483 86.7841 60.3465C86.8978 60.2845 86.9938 60.2006 87.0651 60.1013C87.1364 60.0019 87.1811 59.8896 87.1957 59.7729C87.2103 59.6562 87.1944 59.5381 87.1494 59.4276C87.1044 59.317 87.0313 59.2169 86.9357 59.1347C87.0193 59.1199 87.0965 59.0851 87.1589 59.0342C87.2212 58.9832 87.2663 58.918 87.289 58.846C87.3117 58.7739 87.3112 58.6977 87.2875 58.6258C87.2638 58.554 87.2179 58.4893 87.1549 58.4389C87.0545 58.3778 86.9214 58.3508 86.8497 58.2592C86.7391 58.1261 86.8292 57.9409 86.9193 57.7989L87.3966 57.042C87.753 56.4793 87.8329 55.7835 88.216 55.2442C88.765 54.4585 89.1235 53.583 89.4778 52.7164L90.8564 49.3778L91.7844 50.0844C92.0935 50.2916 92.3525 50.5507 92.5464 50.8466C92.6783 51.1391 92.7618 51.4467 92.7943 51.7599C93.1343 53.5722 94.433 55.1435 94.9144 56.9287C95.0209 57.3261 95.0926 57.7432 95.3528 58.083C95.4459 58.1873 95.5294 58.2979 95.6027 58.4138C95.6705 58.5905 95.7057 58.7756 95.7071 58.9621C95.7501 59.3273 95.8821 59.68 96.0942 59.9965C96.3062 60.3129 96.5934 60.5855 96.9362 60.7959C97.393 61.071 97.9604 61.2598 98.2083 61.6948C98.2579 61.8296 98.3267 61.9582 98.4131 62.0778C98.6344 62.3115 99.1116 62.3385 99.2059 62.6315C99.2591 62.7951 99.1608 62.9911 99.2653 63.1349C99.3246 63.2015 99.4031 63.253 99.4926 63.2841L100.826 63.8684C102.317 64.5229 103.079 66.0258 104.179 67.1207C104.559 67.4773 104.896 67.8678 105.183 68.2857C105.658 69.0318 105.878 69.9685 106.681 70.4431C106.896 70.5414 107.093 70.6695 107.262 70.8225C107.514 71.1137 107.422 71.5219 107.445 71.8886C107.467 72.2554 107.787 72.6923 108.184 72.5808C108.045 73.025 108.045 73.494 108.184 73.9382C109.929 73.8595 111.593 73.2681 112.908 72.259C113.297 71.9605 113.672 71.5794 113.676 71.1263C113.682 71.0481 113.662 70.9701 113.619 70.9016C113.54 70.8131 113.436 70.7443 113.318 70.702C112.07 70.1088 111.695 68.7334 111.064 67.6169C110.513 66.6317 109.698 65.7831 109.016 64.868C107.533 62.8994 106.521 60.5172 104.278 59.2174C103.784 58.9315 103.211 58.6781 102.963 58.2052C102.825 57.9409 102.809 57.6389 102.701 57.3656C102.592 57.0924 102.332 56.8263 102 56.8263C102.184 56.4307 102.147 55.9489 102.16 55.521C102.172 55.3311 102.147 55.1407 102.086 54.9583C102.001 54.762 101.89 54.575 101.756 54.401C101.171 53.5313 100.878 52.534 100.912 51.5244C100.929 51.0048 101.033 50.4691 100.855 49.9729C100.765 49.723 100.607 49.4947 100.498 49.2537C100.335 48.8172 100.248 48.3613 100.242 47.9018L100.119 46.174C100.101 45.5986 100.016 45.0264 99.8655 44.4661C99.4558 43.1249 99.0461 37.5066 97.6429 36.8738C96.2397 36.2409 93.8287 40.5648 92.2494 40.6493C91.5507 40.6748 90.8603 40.7917 90.2009 40.9962C89.1501 41.3414 88.2693 41.9851 87.411 42.6143L84.5063 44.7555C83.8917 45.1996 83.3837 45.6239 82.7057 45.9367Z" fill="#464353"/>
<path d="M68.764 9.25711C69.4031 8.49123 70.5011 8.08491 71.5827 8.05076C72.6642 8.0166 73.7294 8.31504 74.6983 8.73753C74.9843 8.88027 75.29 8.99023 75.6079 9.06474C76.12 9.15643 76.6894 9.03418 77.1524 9.24453C77.7669 9.53038 77.8857 10.2585 77.8325 10.8626C77.7792 11.4667 77.6502 12.1373 78.0168 12.6604C78.1469 12.8096 78.2653 12.9664 78.3712 13.1297C78.5289 13.4407 78.4368 13.8003 78.3425 14.1293C78.1029 13.9495 77.9677 13.678 77.7546 13.4695C77.5416 13.2609 77.1708 13.1207 76.9066 13.2771C76.6423 13.4335 76.6464 13.7176 76.6321 13.9729C76.6177 14.2282 76.544 14.5338 76.2695 14.6165C76.1549 14.6394 76.035 14.6316 75.9255 14.5941C75.8159 14.5566 75.7217 14.4911 75.655 14.4061C75.1859 13.9027 75.3743 13.0991 74.9093 12.5921C74.6451 12.3045 74.2047 12.1642 73.9609 11.8622C73.7684 11.6249 73.7192 11.3228 73.5512 11.0675C73.3832 10.8122 72.992 10.6253 72.7318 10.8015C72.6431 10.8759 72.569 10.9628 72.5127 11.0586C72.3504 11.2625 72.1146 11.4125 71.8432 11.4842C71.5719 11.556 71.2809 11.5454 71.0173 11.4541C70.8159 11.3455 70.5979 11.2626 70.37 11.2078C70.2208 11.2012 70.0725 11.2314 69.9418 11.295C69.8111 11.3585 69.7033 11.4528 69.6305 11.5673C69.4835 11.7961 69.4125 12.0565 69.4257 12.3188C69.4257 12.6784 69.4994 13.0614 69.2659 13.349C69.1771 13.4573 69.0659 13.55 68.9381 13.6223C68.596 13.8146 68.1188 13.9441 67.8033 13.7248C67.6964 13.6374 67.6168 13.5273 67.5724 13.4051C67.5279 13.283 67.5199 13.1528 67.5493 13.0272C67.6107 12.777 67.6915 12.5307 67.791 12.2901C67.9713 11.7327 67.7357 11.1053 67.9324 10.5803C68.1383 10.1075 68.4182 9.6622 68.764 9.25711Z" fill="#464353"/>
<path d="M71.3594 21.9409C71.3286 22.0719 71.3444 22.2081 71.4045 22.331C71.4653 22.4147 71.5482 22.4844 71.6462 22.5342C72.335 22.9108 73.1185 23.1336 73.9281 23.1832C74.0383 23.1848 74.1464 23.2095 74.2436 23.2551C74.4362 23.3666 74.4484 23.6147 74.3768 23.8124C74.2812 23.999 74.2316 24.2012 74.2313 24.4057C74.2907 24.7815 74.7987 24.9451 75.2269 25.0008C75.8271 25.0673 76.4846 25.0332 76.9598 24.7042C77.2818 24.4465 77.5272 24.1237 77.6747 23.7639C78.8506 21.3925 79.2623 18.7713 80.4524 16.4071C80.5426 16.2527 80.6029 16.0862 80.6306 15.9145C80.6432 15.8285 80.6293 15.7412 80.5904 15.6615C80.5515 15.5818 80.489 15.5127 80.4094 15.4614C80.1882 15.341 79.844 15.4093 79.6945 15.2205C79.6208 15.1252 79.629 14.9958 79.5634 14.8951C79.4262 14.6812 79.0656 14.7153 78.8198 14.5913C78.6273 14.5014 78.4941 14.3162 78.279 14.2802C78.1734 14.275 78.0679 14.2915 77.9708 14.3283C77.8738 14.3651 77.7878 14.4213 77.7198 14.4924C77.0213 15.0641 76.6546 15.8749 76.2654 16.6408C75.6711 17.8148 74.9753 18.9471 74.1842 20.028C74.2764 19.9021 73.7417 18.9493 73.5328 18.9079C73.1661 18.8432 72.697 19.4077 72.4983 19.6181C71.8748 20.2815 71.4797 21.0873 71.3594 21.9409Z" fill="#613EEA"/>
<path opacity="0.1" d="M78.8014 14.7585C78.6543 14.7606 78.5096 14.7918 78.378 14.8497C78.2465 14.9076 78.1314 14.9907 78.0414 15.0929C77.8222 15.3428 77.7792 15.6736 77.7239 15.9918C77.5375 17 77.1276 17.9663 76.5174 18.836" fill="black"/>
<path opacity="0.1" d="M79.8461 15.4758C79.643 15.4798 79.4446 15.5301 79.2704 15.6219C79.0961 15.7136 78.9522 15.8436 78.8526 15.999C78.717 16.2818 78.6327 16.5815 78.6027 16.8871C78.4271 17.5648 78.0883 18.2017 77.6092 18.7551" fill="black"/>
<path d="M128.529 50.6237V48.3908C128.529 46.747 127.784 45.1707 126.46 44.0086C125.135 42.8465 123.339 42.1936 121.466 42.1936H20.9924C19.1195 42.1936 17.3233 42.8465 15.9988 44.0086C14.6743 45.1707 13.9299 46.747 13.9294 48.3908V52.5078L128.529 50.6237Z" fill="#33323D"/>
<path d="M48.9433 39.576C48.9433 39.576 48.6566 55.1921 51.8112 60.3303C54.9657 65.4686 56.3177 87.8212 56.3177 87.8212C56.3177 87.8212 89.3877 90.8236 112.433 84.2255C135.478 77.6274 184.513 74.9288 184.513 74.9288L176.25 26.0472C176.25 26.0472 135.426 23.7496 112.203 33.4705C88.9801 43.1915 48.9433 39.576 48.9433 39.576Z" fill="#8DD070"/>
<path opacity="0.1" d="M48.9433 39.576C48.9433 39.576 48.6566 55.1921 51.8112 60.3303C54.9657 65.4686 56.3177 87.8212 56.3177 87.8212C56.3177 87.8212 89.3877 90.8236 112.433 84.2255C135.478 77.6274 184.513 74.9288 184.513 74.9288L176.25 26.0472C176.25 26.0472 135.426 23.7496 112.203 33.4705C88.9801 43.1915 48.9433 39.576 48.9433 39.576Z" fill="black"/>
<path d="M56.2624 45.2805C56.2624 45.2805 55.228 58.1657 57.8233 62.2827C60.4187 66.3998 60.5396 84.7792 60.5396 84.7792C60.5396 84.7792 90.3013 85.9909 111.472 79.6661C132.643 73.3413 177.131 69.2386 177.131 69.2386L172.075 29.2635C172.075 29.2635 135.265 28.9309 113.781 37.8338C92.2965 46.7368 56.2624 45.2805 56.2624 45.2805Z" fill="#8DD070"/>
<path opacity="0.1" d="M113.454 72.347C117.688 71.8841 120.204 65.0469 119.073 57.0758C117.942 49.1046 113.592 43.018 109.357 43.481C105.122 43.9439 102.607 50.781 103.738 58.7522C104.869 66.7233 109.219 72.81 113.454 72.347Z" fill="black"/>
<path opacity="0.2" d="M153.868 2.23474C153.868 2.23474 114.209 11.0442 95.5064 26.5506C76.8042 42.057 37.4332 49.3994 37.4332 49.3994C37.4332 49.3994 42.6198 64.3377 47.4173 68.3793C52.2147 72.4209 61.3139 93.3334 61.3139 93.3334C61.3139 93.3334 93.8369 87.2818 113.461 74.7904C133.085 62.299 178.82 46.5229 178.82 46.5229L153.868 2.23474Z" fill="black"/>
<path d="M36.8371 47.1629C36.8371 47.1629 42.0217 62.103 46.815 66.1445C51.6084 70.1861 60.7116 91.0968 60.7116 91.0968C60.7116 91.0968 93.2388 85.0471 112.865 72.5556C132.491 60.0642 178.222 44.2935 178.222 44.2935L153.27 0C153.27 0 113.613 8.80944 94.9103 24.3159C76.2081 39.8223 36.8371 47.1629 36.8371 47.1629Z" fill="#8DD070"/>
<path opacity="0.1" d="M36.8371 47.1629C36.8371 47.1629 42.0217 62.103 46.815 66.1445C51.6084 70.1861 60.7116 91.0968 60.7116 91.0968C60.7116 91.0968 93.2388 85.0471 112.865 72.5556C132.491 60.0642 178.222 44.2935 178.222 44.2935L153.27 0C153.27 0 113.613 8.80944 94.9103 24.3159C76.2081 39.8223 36.8371 47.1629 36.8371 47.1629Z" fill="black"/>
<path d="M45.7908 50.6219C45.7908 50.6219 49.3121 63.1655 53.2225 66.3836C57.133 69.6018 63.6696 87.0589 63.6696 87.0589C63.6696 87.0589 92.4174 80.1947 110.356 68.4727C128.294 56.7508 169.205 40.8812 169.205 40.8812L150.419 4.18359C150.419 4.18359 115.27 13.7787 97.9338 28.0392C80.5979 42.2997 45.7908 50.6219 45.7908 50.6219Z" fill="#8DD070"/>
<path opacity="0.1" d="M109.692 60.9791C113.561 59.398 113.565 52.2132 109.701 44.9312C105.838 37.6493 99.5694 33.0279 95.7009 34.6089C91.8325 36.19 91.8285 43.3748 95.6922 50.6568C99.5558 57.9387 105.824 62.5601 109.692 60.9791Z" fill="black"/>
<path opacity="0.1" d="M131.241 52.8153V114.841C131.241 115.545 131.083 116.243 130.776 116.894C130.469 117.544 130.019 118.136 129.451 118.634C128.883 119.132 128.21 119.527 127.468 119.796C126.726 120.066 125.932 120.204 125.129 120.204H20.044C18.4237 120.203 16.87 119.638 15.7245 118.633C14.579 117.627 13.9355 116.263 13.9355 114.841V46.5624C16.9467 47.544 16.9467 47.544 20.044 47.4613H125.129C126.748 47.4613 128.301 48.025 129.447 49.0288C130.593 50.0326 131.238 51.3943 131.241 52.8153Z" fill="black"/>
<path d="M131.241 53.6046V115.63C131.241 117.053 130.597 118.417 129.45 119.423C128.304 120.428 126.75 120.993 125.129 120.993H20.044C18.4237 120.993 16.87 120.427 15.7245 119.422C14.579 118.416 13.9355 117.052 13.9355 115.63V47.3499C16.9467 48.3297 16.9467 48.3297 20.044 48.2488H125.129C126.748 48.2488 128.301 48.8128 129.447 49.8169C130.594 50.821 131.239 52.1833 131.241 53.6046Z" fill="#504F60"/>
<path opacity="0.1" d="M130.942 76.5361V96.3718H109.024C106.053 96.3367 103.218 95.2763 101.131 93.4202C99.0448 91.564 97.8749 89.0614 97.8749 86.4539C97.8749 83.8465 99.0448 81.3439 101.131 79.4877C103.218 77.6316 106.053 76.5712 109.024 76.5361H130.942Z" fill="black"/>
<path d="M131.241 76.0075V95.8467H109.323C106.352 95.8116 103.517 94.7513 101.43 92.8951C99.3439 91.039 98.174 88.5364 98.174 85.9289C98.174 83.3214 99.3439 80.8188 101.43 78.9627C103.517 77.1066 106.352 76.0462 109.323 76.0111L131.241 76.0075Z" fill="#33323D"/>
<path opacity="0.1" d="M110.374 90.322C112.807 90.322 114.78 88.5906 114.78 86.4548C114.78 84.319 112.807 82.5876 110.374 82.5876C107.94 82.5876 105.968 84.319 105.968 86.4548C105.968 88.5906 107.94 90.322 110.374 90.322Z" fill="black"/>
<path d="M110.673 89.797C113.107 89.797 115.079 88.0656 115.079 85.9298C115.079 83.7941 113.107 82.0627 110.673 82.0627C108.24 82.0627 106.267 83.7941 106.267 85.9298C106.267 88.0656 108.24 89.797 110.673 89.797Z" fill="#613EEA"/>
<path d="M169.287 75.8367C169.461 77.4925 168.033 79.0998 168.449 80.7215C168.539 81.0684 168.709 81.3956 168.771 81.7462C168.943 82.7099 168.289 83.6214 167.665 84.4268L162.298 91.3377C162.083 91.6415 161.825 91.9206 161.532 92.1683C160.507 92.9702 158.967 92.8875 157.619 93.1266C156.672 93.2954 155.777 93.6426 154.997 94.1442C154.965 94.1686 154.944 94.2031 154.939 94.2406C154.935 94.278 154.947 94.3156 154.973 94.3455C155.195 94.6118 155.49 94.8248 155.831 94.9652C156.172 95.1055 156.547 95.1688 156.923 95.1492C157.064 95.3128 156.923 95.5519 156.718 95.6687C156.429 95.8485 156.034 95.8917 155.976 96.3196C155.956 96.4689 155.99 96.6201 156.075 96.7511C156.291 97.0417 156.627 97.2473 157.013 97.3246C158.871 97.8226 160.878 96.947 162.269 95.7551C163.66 94.5631 164.658 93.0583 166.022 91.8447C166.778 91.1741 167.636 90.5988 168.414 89.948C169.967 88.65 171.174 87.0715 172.339 85.4911C172.69 85.0147 173.042 84.5257 173.189 83.9738C173.337 83.4218 173.267 82.8645 173.433 82.3305C173.65 81.6294 174.234 81.072 174.72 80.4841C175.672 79.3335 176.307 77.9258 176.182 76.5091C176.057 75.0924 175.055 73.6919 173.531 73.2101C173.059 73.0436 172.538 73.0158 172.046 73.1309C171.422 73.2999 170.961 73.753 170.535 74.1863L169.51 75.22C169.255 75.4469 169.053 75.7157 168.916 76.0111C168.851 76.1594 168.835 76.3212 168.871 76.4771C168.908 76.633 168.994 76.7764 169.121 76.8902" fill="#FBBEBE"/>
<path opacity="0.05" d="M169.287 75.8367C169.461 77.4925 168.033 79.0998 168.449 80.7215C168.539 81.0684 168.709 81.3956 168.771 81.7462C168.943 82.7099 168.289 83.6214 167.665 84.4268L162.298 91.3377C162.083 91.6415 161.825 91.9206 161.532 92.1683C160.507 92.9702 158.967 92.8875 157.619 93.1266C156.672 93.2954 155.777 93.6426 154.997 94.1442C154.965 94.1686 154.944 94.2031 154.939 94.2406C154.935 94.278 154.947 94.3156 154.973 94.3455C155.195 94.6118 155.49 94.8248 155.831 94.9652C156.172 95.1055 156.547 95.1688 156.923 95.1492C157.064 95.3128 156.923 95.5519 156.718 95.6687C156.429 95.8485 156.034 95.8917 155.976 96.3196C155.956 96.4689 155.99 96.6201 156.075 96.7511C156.291 97.0417 156.627 97.2473 157.013 97.3246C158.871 97.8226 160.878 96.947 162.269 95.7551C163.66 94.5631 164.658 93.0583 166.022 91.8447C166.778 91.1741 167.636 90.5988 168.414 89.948C169.967 88.65 171.174 87.0715 172.339 85.4911C172.69 85.0147 173.042 84.5257 173.189 83.9738C173.337 83.4218 173.267 82.8645 173.433 82.3305C173.65 81.6294 174.234 81.072 174.72 80.4841C175.672 79.3335 176.307 77.9258 176.182 76.5091C176.057 75.0924 175.055 73.6919 173.531 73.2101C173.059 73.0436 172.538 73.0158 172.046 73.1309C171.422 73.2999 170.961 73.753 170.535 74.1863L169.51 75.22C169.255 75.4469 169.053 75.7157 168.916 76.0111C168.851 76.1594 168.835 76.3212 168.871 76.4771C168.908 76.633 168.994 76.7764 169.121 76.8902" fill="black"/>
<path d="M173.349 118.464C172.177 119.091 170.717 119.129 169.355 118.983C169.135 118.96 168.875 118.945 168.74 119.095C168.535 119.31 168.777 119.634 169.027 119.801C169.83 120.331 170.774 120.672 171.77 120.792C172.659 120.902 173.556 120.955 174.453 120.948C176.911 120.986 179.369 121.022 181.789 120.713C181.932 120.703 182.071 120.668 182.198 120.608C182.354 120.512 182.463 120.368 182.502 120.204C182.667 119.65 182.348 119.057 181.864 118.672C181.381 118.287 180.76 118.074 180.154 117.867L178.024 117.139C177.524 116.968 176.723 116.515 176.18 116.551C175.16 116.615 174.195 118.029 173.349 118.464Z" fill="#3F3D56"/>
<path opacity="0.05" d="M173.349 118.464C172.177 119.091 170.717 119.129 169.355 118.983C169.135 118.96 168.875 118.945 168.74 119.095C168.535 119.31 168.777 119.634 169.027 119.801C169.83 120.331 170.774 120.672 171.77 120.792C172.659 120.902 173.556 120.955 174.453 120.948C176.911 120.986 179.369 121.022 181.789 120.713C181.932 120.703 182.071 120.668 182.198 120.608C182.354 120.512 182.463 120.368 182.502 120.204C182.667 119.65 182.348 119.057 181.864 118.672C181.381 118.287 180.76 118.074 180.154 117.867L178.024 117.139C177.524 116.968 176.723 116.515 176.18 116.551C175.16 116.615 174.195 118.029 173.349 118.464Z" fill="black"/>
<path d="M174.842 93.6426C173.955 94.6782 173.038 95.8737 173.257 97.1556C173.376 97.846 173.816 98.4554 174.14 99.0937C174.578 99.9602 174.808 100.892 175.033 101.819C175.365 103.175 175.699 104.534 175.901 105.911C176.133 107.466 175.045 111.966 174.945 113.532C174.92 113.91 174.869 114.318 174.57 114.589C174.453 114.697 174.298 114.783 174.244 114.924C174.213 115.059 174.239 115.199 174.316 115.319C174.816 116.308 175.838 117.045 176.979 117.466C178.12 117.887 180.871 118.613 182.114 118.651C182.278 118.666 182.444 118.647 182.598 118.595C182.763 118.506 182.893 118.375 182.971 118.219C183.862 116.723 183.005 111.405 183.018 109.717C183.03 108.309 183.409 106.911 183.339 105.505C183.282 104.376 182.93 103.272 182.813 102.146C182.608 100.302 182.993 98.4483 183.38 96.6252C183.675 95.2265 183.972 93.8278 184.351 92.4471C184.583 91.6039 184.851 90.7535 185.375 90.0218C185.785 89.4411 186.361 88.9556 186.838 88.4037C188.163 86.8793 188.751 84.9589 188.477 83.0569C188.448 82.8771 185.404 83.7347 185.136 83.8372C184.041 84.2441 183.034 84.8126 182.157 85.5182C181.453 86.1079 180.898 86.8953 180.281 87.5551C179.408 88.4888 178.547 89.4291 177.696 90.3759C176.725 91.4582 175.774 92.5471 174.842 93.6426Z" fill="#464353"/>
<path opacity="0.05" d="M174.842 93.5797C173.955 94.6152 173.038 95.8126 173.257 97.0927C173.376 97.7849 173.816 98.3943 174.14 99.0326C174.578 99.8973 174.808 100.83 175.033 101.756C175.365 103.114 175.699 104.473 175.901 105.848C176.133 107.405 175.045 111.903 174.945 113.469C174.92 113.847 174.869 114.257 174.57 114.528C174.453 114.634 174.298 114.721 174.244 114.861C174.213 114.996 174.238 115.136 174.316 115.256C174.816 116.247 175.838 116.982 176.979 117.414C178.12 117.845 180.871 118.221 182.114 118.257C182.278 118.273 182.444 118.254 182.598 118.201C182.764 118.114 182.894 117.983 182.971 117.827C183.862 116.331 183.005 111.355 183.018 109.665C183.03 108.255 183.409 106.859 183.339 105.451C183.282 104.322 182.93 103.218 182.813 102.094C182.608 100.248 182.993 98.3943 183.38 96.5713C183.675 95.1744 183.972 93.7757 184.351 92.3931C184.583 91.5499 184.851 90.6995 185.375 89.9678C185.785 89.3871 186.361 88.9017 186.838 88.3498C188.163 86.8256 188.752 84.905 188.477 83.003C188.448 82.8232 185.404 83.6808 185.136 83.7832C184.041 84.1914 183.034 84.7605 182.157 85.466C181.453 86.0539 180.898 86.8414 180.281 87.5012C179.408 88.4349 178.547 89.3757 177.696 90.3238C176.725 91.3977 175.774 92.483 174.842 93.5797Z" fill="black"/>
<path d="M164.973 70.8351C167.719 70.8351 169.945 68.8816 169.945 66.4718C169.945 64.0619 167.719 62.1084 164.973 62.1084C162.227 62.1084 160.001 64.0619 160.001 66.4718C160.001 68.8816 162.227 70.8351 164.973 70.8351Z" fill="#FBBEBE"/>
<path d="M169.451 66.2884C169.91 66.9314 170.512 67.4866 171.222 67.9209C171.931 68.3552 172.732 68.6597 173.578 68.8161L173.204 70.0117C172.556 72.0648 171.829 74.2366 170.022 75.6605C170.227 74.9648 169.965 74.2222 169.518 73.6182C169.072 73.0141 168.445 72.5395 167.831 72.0702L164.969 69.8948C164.886 69.8358 164.817 69.7639 164.764 69.6827C164.693 69.5293 164.693 69.3578 164.764 69.2045C165.129 68.2085 166.169 67.5864 167.017 66.914C167.443 66.5663 167.823 66.178 168.15 65.7562C168.722 65.0407 169.076 65.7598 169.451 66.2884Z" fill="#FBBEBE"/>
<path d="M158.424 62.085L158.312 61.2652C159.096 61.445 159.842 60.8589 160.344 60.253C160.845 59.6471 161.31 58.9334 162.075 58.6799C163.002 58.3743 163.986 58.8597 164.873 59.2696C165.866 59.7532 166.955 60.0645 168.083 60.1865C168.262 60.1917 168.441 60.2171 168.613 60.262C169.191 60.4418 169.465 61.0782 169.549 61.6553C169.633 62.2324 169.611 62.8455 169.895 63.3597C170.1 63.7498 170.481 64.0393 170.715 64.424C171.329 65.456 170.735 66.8673 171.376 67.8795L169.783 66.5976C169.637 66.4807 169.433 66.3585 169.271 66.4574C169.144 66.5365 169.133 66.7073 169.082 66.8439C168.929 67.243 168.359 67.3617 167.947 67.2035C167.536 67.0453 167.235 66.7019 166.923 66.3891C166.219 65.6591 165.379 65.0173 164.395 64.7063C163.964 64.5649 163.504 64.5055 163.045 64.5322C162.586 64.5588 162.138 64.6709 161.732 64.8609C160.989 65.2294 160.444 66.0888 159.532 66.1194C158.283 66.1607 157.763 64.1184 157.185 63.3111C157.396 63.1715 157.545 62.9711 157.605 62.745C157.665 62.5188 157.632 62.2814 157.513 62.0742C157.597 62.0437 158.406 61.9592 158.424 62.085Z" fill="#464353"/>
<path d="M96.9321 36.5754C96.5327 36.8872 96.1634 37.2276 95.828 37.593C95.4904 37.9634 95.3107 38.4257 95.32 38.9C95.3218 39.0376 95.3718 39.1713 95.4634 39.2829C95.5101 39.3364 95.5748 39.3757 95.6482 39.3953C95.7217 39.415 95.8003 39.414 95.8731 39.3926C95.9554 39.3558 96.0258 39.3014 96.0779 39.2344C96.2944 39.0061 96.5241 38.7876 96.7662 38.58C96.8543 38.5027 96.971 38.4218 97.0898 38.4505C97.1431 38.4671 97.1909 38.4949 97.2291 38.5314C97.3669 38.636 97.4673 38.7734 97.518 38.927C97.5897 39.202 97.4073 39.4771 97.2004 39.6928C96.9936 39.9086 96.7498 40.1153 96.6658 40.3868C96.634 40.4585 96.634 40.5381 96.6658 40.6097C96.7054 40.6616 96.7608 40.7027 96.8256 40.7284C97.1189 40.8702 97.4442 40.9536 97.7783 40.9729C98.1125 40.9921 98.4474 40.9467 98.7593 40.8399C99.169 40.6942 99.5336 40.4443 99.9556 40.3149C100.138 40.271 100.315 40.2108 100.484 40.1351C100.605 40.0646 100.708 39.9738 100.789 39.868C100.869 39.7621 100.925 39.6433 100.953 39.5185C101.006 39.2689 101.017 39.0138 100.984 38.7616C100.933 37.7849 100.695 36.8228 100.279 35.9156C100.255 35.8571 100.214 35.805 100.16 35.7646C100.099 35.7316 100.028 35.7147 99.9556 35.716C99.4312 35.6675 98.5709 35.432 98.0649 35.6028C97.8879 35.6879 97.7353 35.8072 97.6183 35.9515C97.5241 36.0432 96.9321 36.4549 96.9321 36.5754Z" fill="#A1616A"/>
<path d="M96.7662 36.169C96.7662 35.7304 96.1517 34.6714 97.1288 34.6013C97.1288 34.1321 96.3729 33.8408 96.5142 33.3428C96.5593 33.1774 96.7191 33.0426 96.7375 32.8736C96.799 32.3935 95.8116 32.1329 95.9755 31.6726C96.037 31.4928 96.2541 31.3886 96.3012 31.2106C96.4118 30.7953 95.5658 30.6101 95.5494 30.184C95.5494 30.0402 95.6416 29.9053 95.6334 29.7615C95.6334 29.5817 95.4552 29.4451 95.3569 29.2887C95.1008 28.8878 95.2258 28.2675 94.7587 28.0607C95.068 28.0841 95.1684 27.6814 95.0414 27.4351C94.9144 27.1888 94.6543 26.9748 94.6522 26.7016C94.6676 26.6025 94.6676 26.5022 94.6522 26.4031C94.5662 26.1406 94.0766 26.1191 93.9947 25.8638C93.9841 25.7658 93.9806 25.6673 93.9844 25.5689C93.9516 25.3658 93.714 25.2363 93.4907 25.1788C93.2588 25.1442 93.0356 25.0743 92.8311 24.972C92.6878 24.8768 92.5218 24.7186 92.3682 24.7923C92.3108 24.8228 92.2822 24.8804 92.2391 24.9235C92.0548 25.1123 91.7025 25.0296 91.471 24.8911C90.7868 24.483 90.4468 23.7513 90.3013 23.0376C90.1559 22.3238 90.16 21.5867 89.9777 20.8801C89.9221 20.6599 89.8481 20.4436 89.7564 20.2329C89.6786 20.0531 89.4287 19.7709 89.4123 19.5893C89.3754 19.1758 90.3505 19.4581 90.7213 19.4994C91.0812 19.5303 91.4371 19.5904 91.7844 19.6792C92.155 19.8021 92.5181 19.9419 92.8721 20.0981C94.3511 20.6716 96.1373 20.7417 97.3254 21.7054C97.7167 22.0218 98.0465 22.4371 98.5545 22.5809C98.7875 22.6201 99.0174 22.6724 99.2428 22.7373C99.8061 22.9692 99.8942 23.6255 100.201 24.1001C100.298 24.2254 100.382 24.3577 100.453 24.4956C100.513 24.6582 100.54 24.8284 100.535 24.999L100.578 26.2449C100.648 28.3322 100.718 30.4249 100.464 32.4996C100.382 33.1846 100.259 33.8894 100.49 34.5474C100.552 34.7272 100.638 34.8962 100.695 35.0777C100.746 35.2906 100.772 35.5075 100.773 35.725L100.806 36.5322C100.817 36.595 100.801 36.6592 100.761 36.712C100.726 36.7364 100.686 36.7537 100.643 36.7628C100.601 36.7718 100.556 36.7722 100.513 36.7641C99.2325 36.6634 97.9379 36.0306 96.7293 36.4135" fill="#464353"/>
<path d="M155.192 98.1947C163.559 98.1947 170.342 97.3342 170.342 96.2728C170.342 95.2114 163.559 94.3509 155.192 94.3509C146.824 94.3509 140.042 95.2114 140.042 96.2728C140.042 97.3342 146.824 98.1947 155.192 98.1947Z" fill="#504F60"/>
<path d="M168.226 96.3663C167.96 95.3649 167.794 94.4858 167.794 94.4858C167.794 94.4858 167.855 93.3963 167.298 92.5783V92.305V90.2914C167.457 89.9258 167.651 89.5727 167.878 89.2361C168.287 88.6032 167.878 86.284 167.878 86.284C167.878 86.284 166.348 83.0137 166.718 80.939C167.089 78.8643 163.576 71.7269 163.576 71.7269C163.598 71.0385 163.708 70.3545 163.906 69.6881C163.943 69.548 163.958 69.404 163.951 69.2602C163.951 69.2422 163.951 69.2261 163.951 69.2081C163.951 69.1901 163.951 69.2189 163.951 69.2243C163.898 67.8561 162.664 65.2924 162.664 65.2924L162.83 60.4058C162.83 60.4058 163.617 57.5293 162.335 53.6549C161.886 52.3047 161.599 51.2242 161.417 50.39C161.396 50.2966 161.376 50.2103 161.36 50.1186C164 49.759 166.018 49.4713 166.018 49.4713C166.018 49.4713 164.486 43.8459 163.451 42.8607C162.417 41.8754 161.589 38.7813 161.589 38.7813C161.589 38.7813 161.05 34.8099 161.921 33.6485C162.791 32.4871 162.914 30.4843 162.914 30.4843C162.914 30.4843 164.899 29.2258 165.149 28.6559C165.399 28.086 165.811 26.8275 165.811 26.1605C165.811 25.4935 165.563 24.902 165.645 24.5424C165.727 24.1828 165.065 22.8542 165.397 22.2214C165.483 22.027 165.527 21.8204 165.528 21.6119C165.529 21.6059 165.529 21.5999 165.528 21.5939C165.531 21.0401 165.473 20.4874 165.354 19.9435C164.78 19.518 164.11 19.2037 163.388 19.0212L163.345 18.8702L163.232 18.4747C163.169 18.4382 163.104 18.4046 163.037 18.374V18.2302L163.019 17.6585L163.33 16.3748C163.945 14.1419 160.546 13.8093 160.546 13.8093C160.34 13.4668 159.997 13.203 159.584 13.0686C158.901 12.8582 159.471 16.4269 159.788 16.6642C160.028 16.844 160.77 17.9551 161.128 18.5052L161.185 18.5951C161.129 18.6394 161.077 18.6875 161.03 18.739L161.159 19.5138L161.179 19.6325C160.954 19.878 160.771 20.1512 160.636 20.4433C160.636 20.4433 161.251 21.0402 161.134 21.7018C161.018 22.3634 161.325 23.203 161.339 23.248C161.302 23.2102 160.866 22.7967 160.43 22.8974C159.993 22.9981 158.774 23.3199 158.774 23.3199C158.774 23.3199 157.865 23.4601 157.955 23.6363C158.045 23.8125 157.341 24.5856 157.341 24.5856L154.895 22.5504C154.87 22.4893 154.844 22.4281 154.823 22.3706C154.723 22.0772 154.655 21.7762 154.618 21.4717C154.885 21.4161 155.146 21.3434 155.401 21.2541C155.658 21.1767 155.89 21.046 156.077 20.873C156.325 20.6159 156.372 20.2671 156.472 19.9471C156.665 19.3215 157.087 18.7659 157.379 18.1708C157.876 17.1653 158.035 16.0566 157.84 14.9743C157.803 14.6407 157.674 14.3201 157.466 14.0394C157.066 13.5576 156.341 13.3616 155.814 12.9769C155.288 12.5921 154.948 12.0042 154.333 11.7184C153.778 11.4577 153.104 11.4883 152.478 11.5781C151.253 11.7553 150.077 12.1309 149.01 12.6856C148.653 12.8654 148.26 13.0865 147.85 13.02C147.498 12.9643 147.236 12.718 147.014 12.4807C147.017 12.4708 147.02 12.4612 147.025 12.4519C147.015 12.4431 147.006 12.4335 146.998 12.4231C146.739 12.928 146.609 13.4767 146.617 14.0304C146.617 14.1167 146.617 14.2102 146.629 14.2875V14.3774C146.629 14.4026 146.629 14.4277 146.629 14.4511C146.629 14.4894 146.623 14.5276 146.611 14.5644C146.559 14.6743 146.481 14.7731 146.381 14.8538C146.306 14.9288 146.238 15.0087 146.177 15.0929C146.177 15.0642 146.197 15.0354 146.209 15.0048C146.053 15.205 145.965 15.4401 145.955 15.6826C145.944 15.8592 146.01 16.0328 146.14 16.168C146.262 16.2726 146.396 16.3665 146.539 16.4485C146.49 16.6858 146.466 16.9265 146.465 17.1676C146.47 17.8826 146.685 18.5843 147.089 19.2051C147.493 19.8259 148.073 20.3446 148.772 20.7112C148.801 20.7705 148.827 20.8317 148.854 20.891C149.167 21.6101 149.403 22.4551 149.298 23.2282C149.298 23.2839 149.28 23.3414 149.27 23.3972C149.259 23.4529 149.208 23.4565 149.182 23.4871C149.182 23.4871 145.14 23.523 144.19 22.7679C143.239 22.0128 141.789 24.6143 141.789 24.6143C141.789 24.6143 140.341 24.8606 140.05 24.6143C139.759 24.368 138.065 24.5802 138.065 24.5802C137.371 24.0384 136.468 23.7491 135.539 23.7711C134.976 23.3959 134.356 23.0932 133.695 22.8722L133.65 22.8578C133.359 22.7646 133.047 22.7302 132.739 22.7571C132.739 22.7571 130.752 21.3189 130.172 20.5422C129.592 19.7655 126.833 16.898 126.821 16.8854V16.747L126.79 16.3298C126.708 16.3411 126.625 16.3471 126.542 16.3478C126.528 16.3065 126.507 16.2579 126.487 16.2022C126.328 15.7954 126.132 15.4004 125.901 15.021C125.901 15.021 125.901 14.4942 126.075 14.3612C126.249 14.2282 126.004 12.2955 126.004 12.2955C126.004 12.2955 124.213 8.62249 122.609 11.3642C122.609 11.3642 119.578 13.1387 122.122 15.2062C122.122 15.2062 123.146 15.6377 123.281 15.9793C123.375 16.2004 123.72 16.8207 123.951 17.2378L124.055 17.4175L124.027 17.4391L124.064 17.7843L124.08 17.9173C123.601 18.1565 123.275 18.3938 123.355 18.5718C123.496 18.8763 123.593 19.1953 123.644 19.521C123.644 19.521 127.163 23.39 127.618 25.0422C127.618 25.0422 137.055 29.9647 140.158 30.3153L139.609 32.7694C139.529 33.4353 139.488 34.1043 139.486 34.7739C139.527 35.3007 139.114 37.6919 139.114 37.6919C139.114 37.6919 138.575 41.2084 138.12 41.701C137.665 42.1937 137.747 44.3025 137.747 44.3025C137.64 45.3121 137.434 46.3117 137.133 47.2906C136.678 48.6263 137.008 50.2804 137.008 50.2804C137.008 50.2804 135.437 53.4446 139.202 51.2997C139.202 51.2997 141.045 51.1991 143.18 51.1343C143.18 51.1955 143.18 51.2584 143.18 51.3141C143.18 51.555 143.18 51.8157 143.165 52.089C143.137 53.9012 143.124 56.4038 143.219 58.288C143.385 61.6284 144.544 68.239 144.544 68.239V71.5669C144.469 71.879 144.432 72.1972 144.433 72.5161C144.409 73.687 144.764 74.8399 145.458 75.8403L145.748 78.0553C145.748 78.0553 146.429 79.5151 146.441 80.3925C146.438 80.4632 146.429 80.5336 146.412 80.6028C146.386 80.7145 146.375 80.8286 146.379 80.9426C146.34 81.9494 147.031 84.3585 147.031 84.3585C147.031 84.3585 147.072 86.7838 147.486 86.9258C147.84 87.0463 147.012 88.3228 146.767 88.6895C146.76 88.6671 146.755 88.6443 146.752 88.6212L146.701 88.6931C146.616 88.8895 146.572 89.0978 146.572 89.308C146.549 89.4736 146.579 89.6416 146.661 89.7925C146.742 89.9433 146.87 90.0709 147.031 90.1602C147.817 90.5827 148.239 90.9333 147.572 91.0735C147.326 91.107 147.082 91.152 146.842 91.2083C146.842 91.1814 146.818 91.1526 146.807 91.1274C146.713 91.1597 146.635 91.2196 146.585 91.2969C146.535 91.3742 146.518 91.4643 146.535 91.5517C146.541 91.8369 146.625 92.1167 146.779 92.3679C147.44 93.6696 147.899 94.1658 147.899 94.1658L148.217 94.1352C148.17 94.2417 148.108 94.3426 148.032 94.4355C147.912 94.5862 147.751 94.7095 147.565 94.795C147.392 94.8861 147.199 94.9443 146.998 94.9658C146.774 94.9722 146.553 95.02 146.351 95.1061C146.15 95.1923 145.971 95.3148 145.826 95.4656C145.417 95.9349 145.154 96.5731 145.97 97.134L148.93 98.033C148.93 98.033 154.022 98.6136 153.752 97.6105C153.481 96.6073 153.317 95.7299 153.317 95.7299C153.339 95.1174 153.199 94.5088 152.908 93.9518C152.854 93.8609 152.794 93.7732 152.727 93.6893L152.908 93.6732C152.908 93.6732 153.281 91.4564 153.776 91.0357C153.891 90.9387 153.918 90.8559 153.891 90.8056C153.942 90.6852 153.811 90.615 153.645 90.5737L153.608 90.6618C153.446 90.6308 153.281 90.6145 153.115 90.6132C153.115 90.6132 152.949 89.4536 153.487 89.0311C153.531 88.983 153.563 88.9275 153.581 88.8681C153.599 88.8087 153.602 88.7467 153.592 88.686C153.596 88.5268 153.577 88.3679 153.535 88.2131C153.529 88.2231 153.523 88.2327 153.516 88.2419C153.246 87.1883 152.328 85.5145 152.328 85.5145C152.328 85.5145 152.287 84.461 152.619 84.0385C152.951 83.616 152.576 78.307 152.576 78.307C152.576 78.307 152.701 75.7415 152.328 74.5459C151.955 73.3503 152.783 71.9426 152.783 71.9426C152.783 71.9426 152.783 71.9156 152.783 71.8671V71.8491L152.736 71.4446C152.735 71.453 152.735 71.4614 152.736 71.4698C152.652 70.7902 152.494 69.5587 152.377 68.9905C152.211 68.1815 152.42 64.3162 152.42 64.3162L153.164 62.6621L154.489 65.5117L155.896 69.3088C155.896 69.3088 156.593 70.1106 156.609 70.9268C156.609 70.9664 156.609 71.0059 156.609 71.0455C156.598 71.1296 156.592 71.2143 156.593 71.299C156.568 71.7787 156.718 72.2529 157.021 72.6528C157.021 72.6528 157.394 74.4506 157.974 74.9019C158.553 75.3531 158.553 76.2377 158.553 76.2377C158.553 76.2377 159.256 78.841 159.577 79.294C159.856 79.6787 159.87 80.7323 159.868 81.0613C159.868 81.1206 159.868 81.1548 159.868 81.1548C159.868 81.1548 159.967 82.0861 159.963 82.8663C159.963 82.9634 159.963 83.0569 159.963 83.145C159.964 83.1384 159.964 83.1318 159.963 83.1252C159.962 83.3384 159.933 83.5508 159.877 83.758L159.864 83.794C159.864 83.7491 159.864 83.7059 159.879 83.6628C159.735 84.1926 159.666 84.7361 159.674 85.2808C159.655 86.2157 159.817 87.3232 160.462 87.9776C161.581 89.1031 162.283 88.9628 162.283 88.9628C162.283 88.9628 161.747 90.3687 161.083 90.651C161.058 90.6614 161.035 90.6747 161.013 90.6905C161.013 90.6618 161.001 90.6348 160.997 90.6078C160.923 90.678 160.867 90.7609 160.831 90.8513C160.796 90.9417 160.783 91.0376 160.792 91.1328C160.745 91.7513 161.19 92.7509 161.612 93.2165C161.768 93.3512 161.96 93.45 162.171 93.5042C162.137 93.5248 162.103 93.5435 162.066 93.5599C161.993 93.5954 161.917 93.6272 161.839 93.6552C161.731 93.6954 161.617 93.7214 161.501 93.7325C161.276 93.7378 161.056 93.7851 160.854 93.8713C160.651 93.9575 160.473 94.0806 160.329 94.2323C159.92 94.6997 159.657 95.338 160.473 95.8989L163.433 96.7978C163.433 96.7978 168.492 97.3677 168.226 96.3663Z" fill="url(#paint0_linear_8_116)"/>
<path d="M148.784 98.0275L145.916 97.1286C145.126 96.5676 145.378 95.9294 145.777 95.4602C145.915 95.3105 146.087 95.1884 146.283 95.1022C146.479 95.016 146.693 94.9676 146.912 94.9603C147.106 94.9386 147.293 94.8804 147.459 94.7896C147.641 94.7029 147.797 94.5797 147.914 94.43C148.123 94.1386 148.236 93.8018 148.239 93.4573C148.239 93.4573 151.386 92.6483 152.246 93.4573C152.4 93.6038 152.528 93.7691 152.627 93.9482C152.913 94.5067 153.053 95.1142 153.037 95.7262C153.037 95.7262 153.197 96.6036 153.457 97.6068C153.717 98.61 148.784 98.0275 148.784 98.0275Z" fill="#2D293D"/>
<path d="M162.804 96.787L159.936 95.8881C159.145 95.3271 159.397 94.6889 159.797 94.2215C159.933 94.0712 160.105 93.9487 160.301 93.8625C160.496 93.7762 160.711 93.7281 160.929 93.7217C161.043 93.7115 161.153 93.6854 161.257 93.6443C161.333 93.6163 161.407 93.5845 161.478 93.5491C162.279 93.1625 162.259 92.2133 162.259 92.2133C162.259 92.2133 165.403 91.4042 166.266 92.2133C166.381 92.3228 166.482 92.4435 166.567 92.5728C167.106 93.3909 167.046 94.4822 167.046 94.4822C167.046 94.4822 167.206 95.3613 167.456 96.3627C167.706 97.3641 162.804 96.787 162.804 96.787Z" fill="#2D293D"/>
<path opacity="0.1" d="M152.248 93.4556C152.402 93.6021 152.53 93.7674 152.629 93.9464L147.918 94.4264C148.127 94.135 148.24 93.7983 148.243 93.4538C148.243 93.4538 151.388 92.6466 152.248 93.4556Z" fill="black"/>
<path opacity="0.1" d="M166.571 92.5764V93.3513C165.838 94.4102 162.292 94.1783 161.261 93.6479C161.337 93.6199 161.411 93.5881 161.483 93.5527C162.283 93.1661 162.263 92.2169 162.263 92.2169C162.263 92.2169 165.407 91.4078 166.27 92.2169C166.385 92.3264 166.486 92.4471 166.571 92.5764Z" fill="black"/>
<path d="M167.13 89.2361C166.911 89.5737 166.724 89.9267 166.571 90.2914V93.0691C165.768 94.2287 161.603 93.8422 161.04 93.2093C160.477 92.5765 159.889 90.9297 160.522 90.6438C161.155 90.3579 161.683 88.9556 161.683 88.9556C161.683 88.9556 161.001 89.0959 159.92 87.9704C158.838 86.8449 159.16 84.3495 159.36 83.7527C159.561 83.1558 159.36 81.1512 159.36 81.1512C159.36 81.1512 159.401 79.7435 159.082 79.2868C158.762 78.8302 158.08 76.2305 158.08 76.2305C158.08 76.2305 158.08 75.3513 157.519 74.8947C156.958 74.438 156.597 72.6438 156.597 72.6438C156.269 72.1954 156.128 71.6611 156.198 71.1318C156.316 70.2526 155.515 69.3034 155.515 69.3034L154.153 65.5045L152.871 62.6567L152.15 64.309C152.15 64.309 151.945 68.1761 152.111 68.9834C152.277 69.7906 152.521 71.9372 152.521 71.9372C152.521 71.9372 151.72 73.3431 152.08 74.5387C152.441 75.7343 152.31 78.3034 152.31 78.3034C152.31 78.3034 152.67 83.6106 152.349 84.0331C152.027 84.4556 152.068 85.5109 152.068 85.5109C152.068 85.5109 153.707 88.6032 153.19 89.0257C152.674 89.4482 152.83 90.6078 152.83 90.6078C152.83 90.6078 153.95 90.6078 153.471 91.0303C152.992 91.4528 152.629 93.6678 152.629 93.6678L147.785 94.1658C147.785 94.1658 147.342 93.675 146.701 92.3679C146.06 91.0609 146.82 91.2083 147.465 91.0663C148.11 90.9243 147.703 90.5755 146.941 90.153C146.179 89.7305 146.621 88.7812 146.621 88.7812C146.621 88.7812 147.783 87.0589 147.381 86.9187C146.98 86.7784 146.941 84.3513 146.941 84.3513C146.941 84.3513 146.14 81.4748 146.34 80.6945C146.541 79.9143 145.699 78.0589 145.699 78.0589L145.419 75.8439C144.562 74.5871 144.249 73.1013 144.538 71.6586V68.2427C144.538 68.2427 143.415 61.6338 143.255 58.2934C143.153 56.1539 143.182 53.2342 143.215 51.413C143.235 50.3918 143.255 49.7141 143.255 49.7141L160.561 48.132C160.561 48.132 160.544 48.8331 160.874 50.3883C161.052 51.2225 161.329 52.303 161.763 53.6531C163.004 57.5203 162.245 60.4023 162.245 60.4023L162.083 65.2906C162.083 65.2906 163.605 68.5591 163.285 69.6845C163.092 70.3528 162.983 71.0377 162.961 71.7269C162.961 71.7269 166.366 78.8643 166.005 80.939C165.645 83.0137 167.126 86.284 167.126 86.284C167.126 86.284 167.532 88.6032 167.13 89.2361Z" fill="#464353"/>
<path opacity="0.05" d="M157.236 70.9196L162.505 70.303C162.505 70.303 159.52 72.9764 157.236 70.9196Z" fill="black"/>
<path opacity="0.1" d="M161.743 65.785C161.743 65.785 161.923 67.421 160.782 68.0359C160.782 68.0359 162.824 67.7554 161.743 65.785Z" fill="black"/>
<path opacity="0.1" d="M161.419 60.582C161.419 60.582 157.015 63.7642 155.413 63.4999C153.811 63.2357 161.419 60.582 161.419 60.582Z" fill="black"/>
<path opacity="0.1" d="M150.706 72.4118C150.706 72.4118 147.361 73.0788 147.26 74.2582C147.16 75.4376 150.706 72.4118 150.706 72.4118Z" fill="black"/>
<path opacity="0.05" d="M151.441 87.0751C151.441 87.0751 146.715 87.8481 148.057 88.3749C149.399 88.9017 151.603 89.3242 151.603 89.3242C151.603 89.3242 153.129 89.3943 151.441 87.0751Z" fill="black"/>
<g opacity="0.05">
<path opacity="0.05" d="M147.102 89.2127C146.984 89.1475 146.883 89.0597 146.808 88.9557C146.733 88.8518 146.686 88.7343 146.67 88.6122L146.621 88.6859C146.621 88.6859 146.181 89.6352 146.943 90.0559C147.029 90.1044 147.113 90.1529 147.189 90.1997C147.33 90.1763 147.481 90.1583 147.627 90.126C148.272 89.9857 147.864 89.6352 147.102 89.2127Z" fill="black"/>
<path opacity="0.05" d="M153.19 88.9304C153.322 88.8261 153.317 88.5564 153.238 88.2112C153.033 88.4827 152.973 88.907 152.969 89.2288C153.019 89.1171 153.094 89.0155 153.19 88.9304Z" fill="black"/>
<path opacity="0.05" d="M152.463 71.4391C152.289 71.855 152.182 72.29 152.144 72.7318C152.235 72.4266 152.358 72.1294 152.51 71.8437L152.463 71.4391Z" fill="black"/>
<path opacity="0.05" d="M163.287 69.5945C163.319 69.4682 163.333 69.3391 163.33 69.2098C163.271 69.4723 163.23 69.715 163.199 69.9289C163.226 69.8192 163.254 69.715 163.287 69.5945Z" fill="black"/>
<path opacity="0.05" d="M152.351 83.9396C152.416 83.8533 152.453 83.562 152.469 83.1575C152.321 83.4706 152.243 83.8056 152.238 84.1445C152.266 84.0725 152.304 84.0037 152.351 83.9396Z" fill="black"/>
<path opacity="0.05" d="M153.334 90.57C153.085 91.2752 152.901 91.9966 152.783 92.7274L147.938 93.2182C147.938 93.2182 147.496 92.7274 146.855 91.4204C146.803 91.3194 146.757 91.2162 146.717 91.1112C146.426 91.228 146.308 91.4923 146.693 92.2636C147.334 93.5652 147.778 94.0614 147.778 94.0614L152.623 93.5688C152.623 93.5688 152.984 91.3539 153.463 90.9314C153.709 90.7282 153.557 90.6221 153.334 90.57Z" fill="black"/>
<path opacity="0.05" d="M146.943 84.256C146.943 84.256 146.982 86.6813 147.383 86.8215C147.588 86.4206 147.721 86.0394 147.541 85.9765C147.131 85.8363 147.1 83.4092 147.1 83.4092C147.1 83.4092 146.299 80.5326 146.5 79.7524C146.701 78.9721 145.859 77.1167 145.859 77.1167L145.578 74.9018C144.721 73.6449 144.409 72.1591 144.698 70.7164V67.3005C144.698 67.3005 143.575 60.6916 143.415 57.3512C143.313 55.2118 143.342 52.2921 143.374 50.4709C143.374 50.1419 143.387 49.8506 143.393 49.6043L143.255 49.6169C143.255 49.6169 143.233 50.2929 143.215 51.3159C143.182 53.1371 143.151 56.0568 143.255 58.1944C143.415 61.5348 144.536 68.1455 144.536 68.1455V71.5614C144.248 73.0037 144.562 74.4887 145.419 75.745L145.697 77.9599C145.697 77.9599 146.539 79.8225 146.338 80.5974C146.138 81.3722 146.943 84.256 146.943 84.256Z" fill="black"/>
<path opacity="0.05" d="M161.204 92.2707C160.81 91.7707 160.548 91.2002 160.436 90.6005C159.942 90.9925 160.509 92.5134 161.05 93.1175C161.61 93.7504 165.776 94.1369 166.581 92.9755V92.3067C165.489 93.247 161.732 92.8694 161.204 92.2707Z" fill="black"/>
<path opacity="0.05" d="M167.292 88.2975C167.072 88.6352 166.884 88.9882 166.731 89.3528V89.8509C166.823 89.6711 166.952 89.4302 167.14 89.1461C167.267 88.8693 167.327 88.5723 167.316 88.2741C167.316 88.2741 167.298 88.2903 167.292 88.2975Z" fill="black"/>
<path opacity="0.05" d="M161.45 88.8531C161.602 88.5823 161.734 88.303 161.845 88.0171C161.845 88.0171 161.163 88.1573 160.081 87.0319C159.295 86.2138 159.25 84.6677 159.362 83.6573C159.158 84.256 158.84 86.7514 159.922 87.8769C160.628 88.6122 161.163 88.8063 161.45 88.8531Z" fill="black"/>
<path opacity="0.05" d="M159.36 81.0558C159.431 81.7485 159.458 82.4442 159.44 83.1395C159.46 83.0297 159.488 82.9211 159.522 82.8141C159.727 82.2154 159.522 80.2126 159.522 80.2126C159.522 80.2126 159.563 78.8049 159.241 78.3483C158.92 77.8916 158.25 75.2883 158.25 75.2883C158.25 75.2883 158.25 74.4092 157.689 73.9525C157.128 73.4959 156.767 71.7016 156.767 71.7016C156.436 71.2541 156.291 70.72 156.357 70.1896C156.478 69.3105 155.677 68.3612 155.677 68.3612L154.315 64.5642L153.033 61.7164L152.31 63.3704C152.31 63.3704 152.31 63.5789 152.285 63.9097L152.871 62.5667L154.153 65.4091L155.515 69.2062C155.515 69.2062 156.316 70.1555 156.195 71.0346C156.129 71.565 156.274 72.0991 156.605 72.5466C156.605 72.5466 156.966 74.3444 157.527 74.7975C158.088 75.2506 158.086 76.1333 158.086 76.1333C158.086 76.1333 158.768 78.7348 159.088 79.1896C159.407 79.6445 159.36 81.0558 159.36 81.0558Z" fill="black"/>
</g>
<path d="M162.724 16.3694L162.423 17.6531L162.441 18.2248L162.453 18.6455L160.782 18.7965L160.596 18.4927C160.249 17.9425 159.53 16.8243 159.299 16.6517C158.99 16.4251 158.439 12.8546 159.094 13.0668C159.498 13.2035 159.829 13.4668 160.024 13.8057C160.024 13.8057 163.316 14.1365 162.724 16.3694Z" fill="#FFCDD3"/>
<path opacity="0.1" d="M162.453 18.6454L160.782 18.7965L160.596 18.4926C160.82 18.268 161.127 18.1187 161.463 18.0702C161.799 18.0217 162.144 18.0769 162.439 18.2265L162.453 18.6454Z" fill="black"/>
<path d="M162.875 19.3412L160.671 19.7889L160.624 19.5012L160.499 18.7263C160.499 18.7263 161.372 17.7052 162.634 18.471L162.744 18.8648L162.875 19.3412Z" fill="#613EEA"/>
<path d="M127.171 16.5097L124.818 17.6171L124.613 17.2288C124.389 16.8171 124.055 16.1968 123.963 15.9703C123.824 15.6287 122.843 15.1972 122.843 15.1972C120.385 13.1315 123.314 11.3552 123.314 11.3552C124.867 8.61351 126.591 12.2865 126.591 12.2865C126.591 12.2865 126.833 14.2228 126.663 14.3522C126.493 14.4817 126.493 15.012 126.493 15.012C126.717 15.392 126.907 15.787 127.061 16.1932C127.132 16.3892 127.171 16.5097 127.171 16.5097Z" fill="#FFCDD3"/>
<path opacity="0.1" d="M127.171 16.5096L124.817 17.6171L124.613 17.2287C124.944 16.9842 126.122 16.15 126.509 16.1842C126.694 16.2044 126.881 16.2086 127.067 16.1968C127.132 16.3891 127.171 16.5096 127.171 16.5096Z" fill="black"/>
<path d="M127.411 17.1335L124.766 18.2769L124.713 17.7789L124.676 17.4337C124.676 17.4337 126.208 16.2813 126.661 16.3262C126.89 16.3553 127.123 16.3553 127.351 16.3262L127.382 16.7433L127.411 17.1335Z" fill="#613EEA"/>
<path d="M156.314 24.8966C156.314 24.8966 144.786 26.0382 146.941 25.4234C148.44 24.9937 149.036 24.1649 149.161 23.23C149.264 22.4515 149.034 21.6119 148.733 20.8928C148.462 20.2548 148.119 19.6423 147.709 19.0644C147.709 19.0644 156.517 14.8107 154.757 18.6778C154.486 19.2628 154.318 19.8805 154.258 20.5099C154.205 21.1353 154.282 21.764 154.485 22.3652C154.817 23.3409 155.45 24.2169 156.314 24.8966Z" fill="#FFCDD3"/>
<path opacity="0.1" d="M154.751 18.6724C154.48 19.2573 154.311 19.8751 154.251 20.5044C153.422 21.1175 152.512 21.0761 151.343 21.0761C150.446 21.0761 149.45 21.2667 148.733 20.8874C148.462 20.2494 148.119 19.6369 147.709 19.0589C147.709 19.0589 156.515 14.8052 154.751 18.6724Z" fill="black"/>
<path d="M151.187 21.3458C153.82 21.3458 155.954 19.4728 155.954 17.1622C155.954 14.8517 153.82 12.9786 151.187 12.9786C148.554 12.9786 146.42 14.8517 146.42 17.1622C146.42 19.4728 148.554 21.3458 151.187 21.3458Z" fill="#FFCDD3"/>
<path opacity="0.1" d="M156.314 24.8965C156.314 24.8965 144.786 26.0382 146.941 25.4233C148.44 24.9936 149.036 24.1648 149.161 23.2299C149.735 22.6906 150.888 22.2897 151.619 22.0811C152.295 21.8816 153.025 21.8709 153.709 22.0506C153.977 22.1216 154.233 22.2257 154.469 22.3598C154.805 23.339 155.443 24.2172 156.314 24.8965Z" fill="black"/>
<path opacity="0.1" d="M162.875 19.3412L160.671 19.7888L160.624 19.5012C160.86 19.2167 161.19 19.0029 161.57 18.889C161.949 18.7752 162.359 18.7667 162.744 18.8648L162.875 19.3412Z" fill="black"/>
<path opacity="0.1" d="M127.411 17.1334L124.766 18.2769L124.713 17.7789C125.57 17.3747 126.46 17.0279 127.376 16.7415L127.411 17.1334Z" fill="black"/>
<path opacity="0.1" d="M160.874 50.3918C156.406 51.0174 150.056 51.8157 149.049 51.546C148.211 51.3231 145.54 51.3465 143.215 51.4166C143.235 50.3954 143.256 49.7176 143.256 49.7176L160.561 48.1355C160.561 48.1355 160.544 48.8367 160.874 50.3918Z" fill="black"/>
<path d="M165.327 49.4713C165.327 49.4713 150.626 51.6862 149.048 51.2691C147.471 50.852 139.37 51.3033 139.37 51.3033C135.723 53.4481 137.245 50.2839 137.245 50.2839C137.245 50.2839 136.926 48.6317 137.366 47.2959C137.662 46.3152 137.864 45.3145 137.971 44.3043C137.971 44.3043 137.891 42.1936 138.331 41.701C138.771 41.2084 139.294 37.6936 139.294 37.6936C139.294 37.6936 139.693 35.3025 139.654 34.7757C139.615 34.2489 139.773 32.7711 139.773 32.7711L140.296 30.3099C137.29 29.9593 128.156 25.0368 128.156 25.0368C127.716 23.3845 124.312 19.5174 124.312 19.5174C124.262 19.1922 124.168 18.8735 124.031 18.5681C123.791 18.0054 127.396 16.8799 127.396 16.8799C127.396 16.8799 130.08 19.7565 130.641 20.5368C131.202 21.317 133.124 22.7517 133.124 22.7517C133.422 22.7248 133.724 22.7592 134.005 22.8524L134.052 22.865C134.696 23.0868 135.3 23.3896 135.844 23.7639C136.748 23.7451 137.624 24.0352 138.288 24.5729C138.288 24.5729 139.927 24.3608 140.212 24.6071C140.496 24.8534 141.893 24.6071 141.893 24.6071C141.893 24.6071 143.294 22.0056 144.216 22.7607C145.138 23.5158 149.048 23.4798 149.048 23.4798C149.569 22.8722 150.837 22.4371 151.63 22.2213C152.306 22.0226 153.035 22.0119 153.719 22.1908C154.014 22.268 154.291 22.3897 154.538 22.5504L156.917 24.5891C156.917 24.5891 157.597 23.8142 157.517 23.6398C157.437 23.4655 158.318 23.3234 158.318 23.3234C158.318 23.3234 159.479 23.007 159.92 22.9009C160.36 22.7949 160.764 23.2138 160.8 23.2515C160.786 23.2066 160.485 22.3526 160.596 21.7054C160.706 21.0581 160.114 20.4469 160.114 20.4469C161.515 17.4229 164.68 19.9543 164.68 19.9543C164.68 19.9543 165.041 21.6065 164.721 22.2393C164.402 22.8722 165.041 24.208 164.961 24.5603C164.881 24.9127 165.123 25.5096 165.123 26.1784C165.123 26.8472 164.713 28.1111 164.481 28.6738C164.25 29.2365 162.318 30.5022 162.318 30.5022C162.318 30.5022 162.197 32.5068 161.355 33.6664C160.514 34.826 161.042 38.7921 161.042 38.7921C161.042 38.7921 161.843 41.8862 162.845 42.8714C163.846 43.8566 165.327 49.4713 165.327 49.4713Z" fill="#3F3D56"/>
<path opacity="0.1" d="M143.897 26.3366C143.897 26.3366 143.456 25.177 143.055 25.0781C142.656 24.9494 142.268 24.7968 141.893 24.6214L142.151 24.1882C142.151 24.1882 143.655 24.5477 143.897 24.9379C144.138 25.328 143.897 26.3366 143.897 26.3366Z" fill="black"/>
<path opacity="0.1" d="M135.844 23.7711C135.764 24.1307 132.198 24.4381 132.198 24.4381L134.001 22.8524L134.046 22.8668C134.692 23.0899 135.298 23.3945 135.844 23.7711Z" fill="black"/>
<path d="M125.528 19.2261C125.705 19.2261 125.848 19.1006 125.848 18.9457C125.848 18.7908 125.705 18.6652 125.528 18.6652C125.352 18.6652 125.209 18.7908 125.209 18.9457C125.209 19.1006 125.352 19.2261 125.528 19.2261Z" fill="#575988"/>
<path d="M125.938 19.7889C126.114 19.7889 126.258 19.6633 126.258 19.5084C126.258 19.3535 126.114 19.228 125.938 19.228C125.761 19.228 125.618 19.3535 125.618 19.5084C125.618 19.6633 125.761 19.7889 125.938 19.7889Z" fill="#575988"/>
<path d="M126.34 20.3085C126.516 20.3085 126.659 20.1829 126.659 20.028C126.659 19.8731 126.516 19.7476 126.34 19.7476C126.163 19.7476 126.02 19.8731 126.02 20.028C126.02 20.1829 126.163 20.3085 126.34 20.3085Z" fill="#575988"/>
<path d="M126.759 20.8694C126.936 20.8694 127.079 20.7438 127.079 20.5889C127.079 20.434 126.936 20.3085 126.759 20.3085C126.583 20.3085 126.44 20.434 126.44 20.5889C126.44 20.7438 126.583 20.8694 126.759 20.8694Z" fill="#575988"/>
<path d="M164.52 20.7867C164.664 20.7867 164.78 20.6844 164.78 20.5583C164.78 20.4322 164.664 20.33 164.52 20.33C164.377 20.33 164.26 20.4322 164.26 20.5583C164.26 20.6844 164.377 20.7867 164.52 20.7867Z" fill="#575988"/>
<path d="M164.561 21.3063C164.705 21.3063 164.821 21.204 164.821 21.0779C164.821 20.9518 164.705 20.8496 164.561 20.8496C164.418 20.8496 164.301 20.9518 164.301 21.0779C164.301 21.204 164.418 21.3063 164.561 21.3063Z" fill="#575988"/>
<path d="M164.596 21.8241C164.74 21.8241 164.856 21.7219 164.856 21.5958C164.856 21.4697 164.74 21.3674 164.596 21.3674C164.452 21.3674 164.336 21.4697 164.336 21.5958C164.336 21.7219 164.452 21.8241 164.596 21.8241Z" fill="#575988"/>
<path opacity="0.1" d="M143.911 35.8652C143.872 35.8239 152.904 45.8325 159.913 40.0488C159.92 40.0506 148.844 41.3684 143.911 35.8652Z" fill="black"/>
<path opacity="0.1" d="M138.728 41.0682C138.728 41.0682 144.132 41.1976 144.698 42.5622V43.9825C144.544 44.0574 144.371 44.0967 144.195 44.0967C144.019 44.0967 143.846 44.0574 143.692 43.9825C143.147 43.7236 139.88 42.2673 138.728 42.9685V41.0682Z" fill="black"/>
<path d="M138.829 41.0682C138.829 41.0682 143.997 41.1922 144.538 42.4939V43.8458C144.391 43.9176 144.225 43.9553 144.056 43.9553C143.888 43.9553 143.722 43.9176 143.575 43.8458C143.055 43.6013 139.931 42.2116 138.829 42.8804V41.0682Z" fill="#3F3D56"/>
<path opacity="0.1" d="M141.678 30.7701C142.23 31.8917 142.934 32.951 143.774 33.9254C144.687 35.0023 145.794 35.9416 147.051 36.7066C147.051 36.7066 141.768 31.421 141.678 30.7701Z" fill="black"/>
<path opacity="0.1" d="M139.91 25.2598C139.91 25.2598 140.812 28.6757 143.135 29.8353L139.91 25.2598Z" fill="black"/>
<path opacity="0.1" d="M138.528 25.6049C138.505 25.542 137.727 28.3016 141.523 29.8352C141.523 29.8352 139.91 29.3552 138.528 25.6049Z" fill="black"/>
<path opacity="0.1" d="M162.124 23.3144C162.064 23.3144 163.996 24.3931 164.522 24.8965C164.522 24.8965 163.265 23.2425 162.124 23.3144Z" fill="black"/>
<path d="M149.899 20.9539C149.899 21.0452 149.922 21.1353 149.964 21.2186C150.006 21.302 150.068 21.3767 150.145 21.438C150.222 21.4993 150.313 21.546 150.411 21.575C150.51 21.604 150.614 21.6147 150.718 21.6065C152.17 21.6856 153.684 21.7414 155.02 21.247C155.27 21.1685 155.495 21.0377 155.675 20.8658C155.913 20.6087 155.96 20.2599 156.056 19.9399C156.245 19.3143 156.646 18.7587 156.935 18.1637C157.424 17.1583 157.587 16.0542 157.408 14.9725C157.37 14.6409 157.246 14.3215 157.044 14.0394C156.658 13.5558 155.956 13.3598 155.446 12.9751C154.936 12.5903 154.608 12.0024 154.012 11.7166C153.475 11.4541 152.818 11.4865 152.213 11.5763C151.025 11.7535 149.886 12.1288 148.858 12.682C148.512 12.8618 148.133 13.0829 147.735 13.0164C147.387 12.9589 147.133 12.7018 146.916 12.4609C146.637 13.0362 146.519 13.6621 146.574 14.2857C146.589 14.3772 146.586 14.4703 146.564 14.5608C146.514 14.6701 146.438 14.7688 146.34 14.8502C145.982 15.2098 145.759 15.7941 146.113 16.1644C146.267 16.3245 146.504 16.4125 146.654 16.5762C146.922 16.8692 146.832 17.2953 146.826 17.6692C146.811 17.7998 146.849 17.9308 146.932 18.0396C147.01 18.103 147.105 18.1477 147.208 18.1695C147.311 18.1912 147.418 18.1892 147.52 18.1637C147.723 18.11 147.936 18.0923 148.147 18.1115C148.369 18.1749 148.561 18.3014 148.692 18.4711C149.354 19.228 149.616 20.0514 149.899 20.9539Z" fill="#2D293D"/>
<g opacity="0.1">
<path opacity="0.1" d="M155.845 20.5476C155.665 20.7195 155.44 20.8503 155.19 20.9288C153.846 21.4196 152.334 21.3638 150.888 21.2883C150.733 21.2897 150.579 21.2595 150.439 21.2002C150.218 21.087 150.134 20.8496 150.067 20.6339C149.784 19.735 149.524 18.9098 148.852 18.1601C148.722 17.9871 148.53 17.8574 148.307 17.7915C148.096 17.7741 147.883 17.7918 147.68 17.8437C147.578 17.8694 147.471 17.8717 147.368 17.8503C147.265 17.8289 147.17 17.7845 147.092 17.7214C147.009 17.6126 146.971 17.4816 146.986 17.351C146.986 16.9735 147.082 16.551 146.814 16.258C146.664 16.0944 146.426 16.0063 146.273 15.8444C146.173 15.7252 146.111 15.5843 146.095 15.4367C146.079 15.2892 146.108 15.1406 146.181 15.0067C145.925 15.3662 145.816 15.8175 146.113 16.1267C146.267 16.2867 146.504 16.3748 146.654 16.5384C146.922 16.8333 146.832 17.2576 146.826 17.6315C146.81 17.7619 146.847 17.893 146.93 18.0019C147.008 18.0656 147.103 18.1105 147.207 18.1322C147.31 18.154 147.418 18.1518 147.52 18.1259C147.723 18.0723 147.936 18.0545 148.147 18.0738C148.369 18.1372 148.561 18.2637 148.692 18.4333C149.362 19.183 149.624 20.0065 149.907 20.909C149.94 21.1311 150.066 21.3343 150.261 21.4789C150.402 21.5383 150.556 21.5679 150.712 21.5652C152.164 21.6443 153.678 21.7018 155.014 21.2056C155.264 21.1277 155.489 20.9968 155.669 20.8245C155.759 20.7232 155.829 20.6088 155.874 20.4865C155.876 20.5099 155.862 20.5296 155.845 20.5476Z" fill="black"/>
<path opacity="0.1" d="M146.574 14.4511C146.638 14.3898 146.688 14.3176 146.719 14.239C146.738 14.148 146.738 14.0549 146.719 13.9639C146.679 13.4513 146.755 12.9369 146.943 12.4501L146.916 12.4232C146.636 12.9976 146.518 13.6232 146.574 14.2462C146.58 14.3144 146.58 14.3829 146.574 14.4511Z" fill="black"/>
</g>
<path opacity="0.1" d="M149.048 23.4888C149.048 23.4888 155.003 24.1828 155.538 23.3972L149.048 23.4888Z" fill="black"/>
<path opacity="0.1" d="M160.624 21.326C160.624 21.326 163.934 21.326 164.662 22.4191L160.624 21.326Z" fill="black"/>
<path d="M179.144 118.437C178.162 119.207 176.886 119.625 175.57 119.609C175.234 119.609 174.769 119.665 174.767 119.959C174.775 120.046 174.809 120.129 174.865 120.2C175.281 120.808 175.937 121.261 176.709 121.471C177.425 121.662 178.192 121.63 178.939 121.595L181.121 121.497C181.531 121.477 181.94 121.459 182.35 121.414C182.76 121.369 183.206 121.295 183.634 121.234C184.686 121.103 185.75 121.06 186.811 121.105C187.094 121.114 187.426 121.105 187.594 120.925C187.762 120.745 187.676 120.402 187.612 120.132C187.481 119.576 187.612 118.994 187.492 118.437C187.287 117.459 186.322 116.709 185.265 116.355C184.282 116.028 182.54 115.652 181.61 116.198C180.629 116.772 180.029 117.73 179.144 118.437Z" fill="#3F3D56"/>
<path d="M181.311 85.6692C181.504 86.4728 182.391 87.0877 182.415 87.9075C182.438 88.5655 181.903 89.1174 181.518 89.6802C181.155 90.263 180.849 90.8716 180.603 91.4996C179.878 93.1346 178.978 94.7058 177.915 96.192C177.403 96.9111 176.829 97.6788 176.946 98.5148C177.028 98.9057 177.185 99.2815 177.411 99.6258L178.947 102.305C179.284 102.839 179.547 103.407 179.732 103.996C179.865 104.505 179.877 105.032 179.955 105.55C180.197 107.193 181.076 108.847 180.555 110.44C180.51 110.577 180.351 110.742 180.226 110.647C180.734 111.479 181.141 112.317 181.102 113.261C181.082 113.755 180.91 114.271 181.117 114.731C181.205 114.924 181.358 115.104 181.356 115.31C181.356 115.447 181.285 115.575 181.268 115.708C181.225 116.087 181.623 116.403 182.034 116.524C182.446 116.644 182.895 116.635 183.311 116.745C184.11 116.955 184.681 117.559 185.359 117.978C186.055 118.399 186.874 118.633 187.719 118.652C187.839 118.664 187.961 118.642 188.067 118.591C188.127 118.545 188.176 118.488 188.209 118.424C188.242 118.36 188.259 118.291 188.26 118.221C188.297 117.885 188.239 117.547 188.092 117.235C187.945 116.923 187.713 116.648 187.416 116.434C187.286 116.362 187.178 116.264 187.102 116.146C187.064 116.042 187.054 115.932 187.074 115.824C187.197 114.351 187.167 112.87 186.983 111.402C186.901 110.936 186.874 110.464 186.904 109.994C186.947 109.602 187.082 109.214 187.033 108.824C186.983 108.433 186.756 108.078 186.623 107.702C186.385 107.033 186.451 106.314 186.418 105.614C186.377 104.399 186.06 103.205 185.744 102.019C185.619 101.553 185.482 101.066 185.107 100.721C184.788 100.428 184.271 100.147 184.392 99.7571C184.459 99.6133 184.559 99.483 184.685 99.3741C184.833 99.2108 184.942 99.0226 185.005 98.821C185.068 98.6195 185.083 98.4088 185.05 98.2019C185.185 98.2321 185.327 98.2203 185.453 98.1685C185.579 98.1167 185.68 98.0281 185.74 97.9179C188.235 96.8841 190.247 94.8166 191.144 92.5243C191.197 92.3541 191.278 92.1917 191.386 92.0425C191.617 91.7585 192.019 91.6362 192.375 91.4798C193.493 90.9854 194.266 90.0595 194.974 89.1534C195.384 88.6284 195.794 88.0855 195.978 87.467C196.075 87.067 196.121 86.6588 196.115 86.2499L196.179 84.1374C196.193 83.9983 196.178 83.8581 196.134 83.7239C196.073 83.5985 195.985 83.4848 195.874 83.3895C195.192 82.7572 194.298 82.3336 193.321 82.1813C192.666 82.0789 191.996 82.0986 191.332 82.0501C190.046 81.9566 188.776 81.606 187.489 81.6905C185.468 81.8218 183.667 83.0515 182.715 84.6228C182.381 85.1765 182.028 85.6584 181.311 85.6692Z" fill="#464353"/>
<path d="M170.086 71.9336C170.113 72.2597 170.063 72.5873 169.938 72.8955C169.781 73.1903 169.385 73.4204 169.039 73.3C169.144 73.0932 168.867 72.8577 168.609 72.8829C168.482 72.9086 168.364 72.9609 168.265 73.0355C168.166 73.11 168.09 73.2045 168.042 73.3108C167.87 73.6127 167.813 73.9546 167.878 74.287C167.96 74.7005 168.232 75.0978 168.16 75.5131C168.103 75.8583 167.814 76.2017 167.968 76.5217C168.068 76.6679 168.193 76.7996 168.339 76.9119C168.541 77.1307 168.64 77.4093 168.615 77.6903C168.591 77.9712 168.444 78.2332 168.205 78.422L172.081 78.4904C171.94 79.0585 172.231 79.6392 172.563 80.1444C173.492 81.5333 174.775 82.7144 176.312 83.5949C177.849 84.4755 179.597 85.0316 181.42 85.2197C181.321 85.2702 181.237 85.3393 181.172 85.422C181.108 85.5047 181.065 85.5989 181.048 85.6978C181.03 85.7967 181.037 85.8979 181.069 85.994C181.102 86.0901 181.158 86.1787 181.234 86.2534C181.549 86.5285 182.084 86.4944 182.479 86.3164C182.874 86.1384 183.184 85.8435 183.544 85.6152C184.181 85.2194 184.957 85.0358 185.734 85.0974C186.219 85.1388 186.691 85.2772 187.178 85.2988C188.612 85.3653 189.841 84.4592 191.222 84.0888C192.228 83.8174 193.369 83.8174 194.212 83.2654C194.577 83.0281 194.876 82.638 194.77 82.2532C194.682 82.0321 194.542 81.8295 194.36 81.6582C193.874 81.1062 193.588 80.4428 193.239 79.8154C192.55 78.5731 191.6 77.4558 190.439 76.5217C189.563 75.8498 188.635 75.2323 187.662 74.6735C187.426 74.5211 187.175 74.388 186.912 74.2762C186.572 74.145 186.195 74.082 185.888 73.9166C185.433 73.6649 185.171 73.2209 184.82 72.8631C184.052 72.0757 182.872 71.7143 181.926 71.0958C181.291 70.6805 180.73 70.134 179.972 69.9344C179.603 69.8355 179.212 69.8283 178.843 69.7313C178.005 69.5083 177.395 68.8557 176.573 68.5914C175.924 68.3829 175.207 68.4368 174.525 68.3631C173.756 68.2799 173.022 68.0343 172.384 67.6476C172.179 67.5008 171.949 67.3831 171.702 67.2988C170.664 67.0219 170.58 68.7191 170.473 69.307C170.336 70.1807 170.086 71.0491 170.086 71.9336Z" fill="#613EEA"/>
<path d="M171.098 77.6256C171.272 79.2832 169.846 80.8886 170.262 82.5121C170.35 82.8573 170.52 83.1863 170.582 83.5369C170.756 84.4987 170.1 85.4102 169.475 86.2157L164.109 93.1284C163.893 93.4319 163.636 93.7108 163.342 93.959C162.318 94.759 160.778 94.6781 159.43 94.9154C158.483 95.0862 157.589 95.4332 156.808 95.933C156.773 95.9569 156.75 95.9919 156.744 96.0305C156.737 96.0692 156.749 96.1084 156.775 96.1398C156.998 96.4057 157.293 96.6186 157.633 96.759C157.973 96.8993 158.348 96.9627 158.723 96.9434C158.865 97.1052 158.723 97.3461 158.529 97.463C158.242 97.6428 157.844 97.6841 157.787 98.1138C157.768 98.2631 157.802 98.414 157.885 98.5453C158.102 98.835 158.439 99.0399 158.824 99.117C160.682 99.6168 162.689 98.7395 164.08 97.5475C165.471 96.3555 166.468 94.8507 167.833 93.639C168.589 92.9666 169.447 92.3931 170.225 91.7423C171.778 90.4424 172.987 88.8657 174.15 87.2854C174.5 86.809 174.855 86.3199 175 85.768C175.146 85.2161 175.078 84.6569 175.244 84.123C175.461 83.4236 176.045 82.8645 176.53 82.2784C177.483 81.1278 178.12 79.7201 177.993 78.3015C177.866 76.883 176.866 75.4843 175.342 75.0025C174.87 74.8376 174.349 74.8099 173.857 74.9234C173.232 75.0924 172.771 75.5454 172.345 75.9805L171.321 77.0125C171.072 77.241 170.876 77.5104 170.746 77.8053C170.679 77.9539 170.664 78.1161 170.7 78.2723C170.736 78.4286 170.823 78.5723 170.95 78.6863" fill="#FBBEBE"/>
<path d="M173.818 70.8261C173.114 70.8621 172.337 70.9232 171.839 71.3655C171.631 71.5686 171.462 71.8006 171.34 72.0523C170.856 72.917 170.385 73.8213 170.35 74.785C170.322 75.5545 170.576 76.3078 170.709 77.0682C170.819 77.7011 170.539 78.3465 170.485 78.9865C171.36 78.751 172.515 78.431 173.308 78.0337C173.849 77.7622 174.371 77.453 174.961 77.2804C175.803 77.0341 177.215 77.4602 178.015 77.8018C178.059 77.3091 177.637 76.4498 177.682 75.9554C177.688 75.7473 177.73 75.5412 177.807 75.3441C177.926 75.1357 178.068 74.9376 178.231 74.7526C178.535 74.3176 178.676 73.809 178.631 73.2997C178.587 72.7904 178.36 72.3066 177.983 71.9174C177.272 71.2163 176.16 70.9538 175.098 70.8387C174.43 70.7707 173.757 70.7503 173.085 70.7776" fill="#613EEA"/>
</g>
<defs>
<linearGradient id="paint0_linear_8_116" x1="144.665" y1="98.1948" x2="144.665" y2="10.3412" gradientUnits="userSpaceOnUse">
<stop stop-color="#808080" stop-opacity="0.25"/>
<stop offset="0.54" stop-color="#808080" stop-opacity="0.12"/>
<stop offset="1" stop-color="#808080" stop-opacity="0.1"/>
</linearGradient>
<clipPath id="clip0_8_116">
<rect width="215" height="122" fill="white"/>
</clipPath>
</defs>
</svg>
